<svg id="SvgjsSvg1025" width="288" height="288" xmlns="http://www.w3.org/2000/svg" version="1.1" xmlns:xlink="http://www.w3.org/1999/xlink" xmlns:svgjs="http://svgjs.com/svgjs"><defs id="SvgjsDefs1026"></defs><g id="SvgjsG1027"><svg xmlns="http://www.w3.org/2000/svg" display="block" preserveAspectRatio="none" viewBox="0 0 2048 2048" width="288" height="288"><path fill="#555454" d="M 0 0 L 3.39912 0 L 35.5866 0 L 51.7259 0 L 101.183 0 L 116.564 0 L 149.389 0 L 165.577 0 L 215.199 0 L 231.03 0 L 263.386 0 L 273.04 0 L 279.803 0 L 330.566 0 L 346.754 0 L 377.34 0 L 392.451 0 L 446.253 0 L 463.426 0 L 491.44 0 L 507.56 0 L 540.263 0 L 556.96 0 L 561.869 0 L 578.237 0 L 653.524 0 L 670.413 0 L 675.569 0 L 692.137 0 L 766.786 0 L 783.416 0 L 787.614 0 L 803.603 0 L 879.423 0 L 896.526 0 L 900.469 0 L 917.229 0 L 989.668 0 L 1006.5 0 L 1010.64 0 L 1027.16 0 L 1101.27 0 L 1118.56 0 L 1122.21 0 L 1138.85 0 L 1213.47 0 L 1229.61 0 L 1234.36 0 L 1250.43 0 L 1326.39 0 L 1343.49 0 L 1347.8 0 L 1363.93 0 L 1440.18 0 L 1456.28 0 L 1460.6 0 L 1477.03 0 L 1553.47 0 L 1570.21 0 L 1574.47 0 L 1590.51 0 L 1667.36 0 L 1683.17 0 L 1688.09 0 L 1704.73 0 L 1780.79 0 L 1797.41 0 L 1801.58 0 L 1818.08 0 L 1895.46 0 L 1911.17 0 L 1915.18 0 L 1932.09 0 L 2009.16 0 L 2025 0 L 2028.71 0 L 2048 0 L 2048 19.6162 L 2048 73.1673 L 2048 89.209 L 2048 115.351 L 2048 133.121 L 2048 188.082 L 2048 204.282 L 2048 230.029 L 2048 247.242 L 2048 303.261 L 2048 318.424 L 2048 343.544 L 2048 360.317 L 2048 415.435 L 2048 432.434 L 2048 458.206 L 2048 475.235 L 2048 530.42 L 2048 545.639 L 2048 571.433 L 2048 588.434 L 2048 643.152 L 2048 659.888 L 2048 684.948 L 2048 702.509 L 2048 757.3 L 2048 773.548 L 2048 798.574 L 2048 816.359 L 2048 870.217 L 2048 887.163 L 2048 909.464 L 2048 927.883 L 2048 981.039 L 2048 998.541 L 2048 1022.71 L 2048 1040.53 L 2048 1095.51 L 2048 1112.35 L 2048 1137.41 L 2048 1154.39 L 2048 1210.27 L 2048 1226.6 L 2048 1251.49 L 2048 1268.76 L 2048 1324.3 L 2048 1340.47 L 2048 1365.67 L 2048 1382.45 L 2048 1439.58 L 2048 1455.52 L 2048 1481.24 L 2048 1498.15 L 2048 1552.11 L 2048 1569.04 L 2048 1593.46 L 2048 1610.32 L 2048 1665.68 L 2048 1682.69 L 2048 1707.39 L 2048 1724.49 L 2048 1779.27 L 2048 1795.6 L 2048 1820.25 L 2048 1836.53 L 2048 1892.84 L 2048 1909.45 L 2048 1933.74 L 2048 1951.48 L 2048 2006.31 L 2048 2022.53 L 2048 2047.32 L 2048 2048 L 2007.61 2048 L 1936.64 2048 L 1894.45 2048 L 1823.33 2048 L 1781.8 2048 L 1710.3 2048 L 1666.87 2048 L 1597.82 2048 L 1554.65 2048 L 1484.6 2048 L 1441.68 2048 L 1373.03 2048 L 1329.44 2048 L 1260.14 2048 L 1215.67 2048 L 1147.57 2048 L 1103.57 2048 L 1035.61 2048 L 989.668 2048 L 945.901 2048 L 920.492 2048 L 831.899 2048 L 803.243 2048 L 717.854 2048 L 689.377 2048 L 602.753 2048 L 576.095 2048 L 487.665 2048 L 462.106 2048 L 373.617 2048 L 345.635 2048 L 258.922 2048 L 229.158 2048 L 145.508 2048 L 115.031 2048 L 31.5367 2048 L 0 2048 L 0 2017.5 L 0 1951.82 L 0 1934.47 L 0 1917.29 L 0 1900.52 L 0 1837.77 L 0 1820.39 L 0 1803.64 L 0 1787.23 L 0 1723.63 L 0 1706.66 L 0 1689.92 L 0 1672.93 L 0 1609.5 L 0 1593.27 L 0 1575.09 L 0 1558.52 L 0 1495.63 L 0 1478.62 L 0 1460.47 L 0 1443.44 L 0 1380.1 L 0 1364.16 L 0 1346.59 L 0 1329.69 L 0 1265.6 L 0 1248.88 L 0 1232.04 L 0 1215.53 L 0 1152.39 L 0 1134.12 L 0 1116.17 L 0 1100.45 L 0 1036.5 L 0 1020.33 L 0 1002.35 L 0 985.822 L 0 924.656 L 0 906.499 L 0 847.545 L 0 830.458 L 0 810.003 L 0 793.529 L 0 734.452 L 0 717.467 L 0 695.856 L 0 678.685 L 0 619.817 L 0 603.458 L 0 582.396 L 0 565.024 L 0 507.002 L 0 490.624 L 0 468.361 L 0 451.526 L 0 392.57 L 0 376.457 L 0 354.558 L 0 337.672 L 0 279.458 L 0 262.616 L 0 241.517 L 0 224.794 L 0 165.599 L 0 149.604 L 0 126.314 L 0 109.981 L 0 52.2931 L 0 35.6446 L 0 12.4127 L 0 0 z" class="svgShape color555454-0 selectable"></path><path fill="#E1E0E0" d="M 556.96 0 L 561.869 0 L 578.237 0 L 653.524 0 L 670.413 0 L 675.569 0 L 692.137 0 L 766.786 0 L 783.416 0 L 787.614 0 L 803.603 0 L 879.423 0 L 896.526 0 L 900.469 0 L 917.229 0 L 989.668 0 L 1006.5 0 L 1010.64 0 L 1027.16 0 L 1101.27 0 L 1118.56 0 L 1122.21 0 L 1138.85 0 L 1213.47 0 L 1229.61 0 L 1234.36 0 C 1249.57 16.0852 1264.83 30.7172 1280.18 46.4172 C 1269.64 56.9026 1258.5 67.6864 1248.87 78.9865 C 1253.13 79.9881 1254.32 79.8871 1257.28 82.7941 C 1272.64 99.9486 1290.3 116.964 1306.4 133.661 C 1308.56 135.878 1312.78 140.47 1314.97 142.288 C 1330.7 158.189 1347.35 173.895 1362.82 189.749 C 1365.6 192.699 1368.4 195.736 1371.27 198.588 C 1387.19 214.436 1404.27 230.608 1419.88 246.5 C 1422.43 249.295 1425.52 252.929 1428.31 255.34 L 1477.28 304.105 L 1485.71 312.79 C 1501.55 329.022 1517.55 345.103 1533.69 361.033 C 1536.17 363.58 1539.77 367.52 1542.4 369.683 L 1590.69 418.06 C 1593.07 420.444 1597.63 425.315 1599.98 427.335 C 1616.23 443.154 1631.74 459.336 1648.2 474.977 C 1650.79 477.603 1653.73 480.737 1656.4 483.198 C 1672.3 499.235 1688.64 516.169 1704.95 531.692 C 1707.67 534.548 1710.77 537.983 1713.65 540.59 L 1730.78 557.383 L 1730.96 594.991 L 1730.99 611.546 L 1730.99 621.163 L 1730.94 636.44 L 1730.97 709.06 L 1731.03 724.884 L 1730.99 735.499 L 1730.87 750.862 L 1730.93 820.604 L 1731.02 838.67 L 1730.91 849.167 L 1730.92 864.526 L 1730.93 932.074 C 1730.85 946.698 1730.5 962.169 1730.73 976.722 L 1730.95 1045.94 L 1730.9 1063.89 L 1731.03 1073.38 L 1730.87 1089.76 L 1730.96 1161.3 L 1731 1179 L 1730.97 1189.33 L 1730.8 1204.63 C 1730.68 1227.92 1730.73 1251.2 1730.96 1274.48 L 1730.83 1291.82 L 1730.92 1303.38 L 1730.96 1318.03 L 1730.97 1389.67 L 1730.75 1404.17 C 1726.22 1402.99 1717.86 1397.98 1712.67 1397.24 C 1700.88 1395.56 1688.31 1395.88 1676.42 1395.9 L 1626.04 1395.98 L 1444.41 1395.96 L 963.463 1396.21 C 935.656 1367.07 910.573 1333.84 882.75 1304.65 C 869.833 1291.11 852.858 1287.5 834.631 1287.29 C 800.319 1286.9 765.784 1287.11 731.374 1287.14 L 543.327 1287.19 L 417.104 1287.21 C 393.263 1287.22 368.712 1286.72 344.958 1287.99 C 335.218 1288.51 326.59 1292.61 317.877 1296.74 L 317.813 1273.44 C 318.402 1252.95 317.977 1230.14 317.954 1209.47 C 316.761 1178.43 317.989 1137.28 317.97 1105.44 L 317.973 884.467 L 318.064 818.606 C 318.061 812.863 318.461 792.637 317.37 787.974 C 318.702 759.107 317.916 724.892 317.868 695.615 L 317.802 545.608 L 318.014 475.186 C 318.019 469.615 318.407 448.573 317.37 444.163 C 317.925 428.172 318.133 412.17 317.993 396.17 C 317.553 383.254 317.829 368.595 317.768 355.537 C 318.696 334.546 317.969 307.799 317.857 286.603 C 318.156 264.316 317.69 241.942 318.032 219.582 C 317.347 201.58 317.354 188.402 321.062 170.933 C 326.34 153.408 331.939 143.263 342.415 128.517 L 350.482 119.013 C 368.695 100.217 386.892 89.2045 412.244 82.7011 C 421.836 81.0065 429.504 80.1671 439.137 79.2042 L 460.295 79.1088 C 465.65 79.1869 472.544 79.4654 477.756 79.2263 L 529.414 79.1461 L 546.505 79.1203 C 535.701 69.8115 522.024 55.4008 511.629 45.0141 C 525.881 30.1773 542.271 14.6317 556.96 0 z" class="svgShape colore1e0e0-1 selectable"></path><path fill="#555454" d="M 670.413 0 L 675.569 0 L 692.137 0 L 766.786 0 L 783.416 0 L 787.614 0 C 800.646 12.8744 820.75 34.059 833.998 45.6877 L 800.333 79.1302 C 790.709 79.2595 781.083 79.2706 771.459 79.1636 L 754.343 79.2062 L 703.546 79.2048 C 698.556 79.4782 691.705 79.2489 686.558 79.2128 C 677.205 79.3769 667.85 79.3609 658.498 79.1649 C 647.377 68.9133 635.534 56.5007 624.617 45.7115 L 670.413 0 z" class="svgShape color555454-2 selectable"></path><path d="M670.413 0L675.569 0C690.68 14.9826 706.079 30.6347 721.585 45.135 710.952 55.8566 697.826 69.7202 686.558 79.2128 677.205 79.3769 667.85 79.3609 658.498 79.1649 647.377 68.9133 635.534 56.5007 624.617 45.7115L670.413 0zM783.416 0L787.614 0C800.646 12.8744 820.75 34.059 833.998 45.6877L800.333 79.1302C790.709 79.2595 781.083 79.2706 771.459 79.1636L737.388 45.4314C753.022 30.5857 768.367 15.4391 783.416 0zM692.137 0L766.786 0C754.268 11.9853 741.855 24.8618 729.649 37.2224L692.137 0zM703.546 79.2048C711.236 70.6808 721.119 61.4012 729.493 53.3347 734.981 58.8903 750.238 73.7492 754.343 79.2062L703.546 79.2048z" fill="#000000" class="svgShape color000000-3 selectable"></path><path fill="#555454" d="M 787.614 0 L 803.603 0 L 879.423 0 L 896.526 0 L 900.469 0 L 917.229 0 L 989.668 0 L 1006.5 0 C 991.301 14.7265 976.531 30.0919 961.352 44.97 C 971.533 55.0391 985.185 68.069 994.293 79.0605 L 979.133 79.0526 L 944.366 79.1564 C 935.598 80.0588 920.65 79.3541 911.417 79.1891 C 902.35 79.4062 892.945 79.2476 883.849 79.2179 L 867.093 79.2122 C 850.395 78.9722 833.288 79.1314 816.554 79.096 C 812.25 79.3672 804.859 79.1394 800.333 79.1302 L 833.998 45.6877 C 820.75 34.059 800.646 12.8744 787.614 0 z" class="svgShape color555454-4 selectable"></path><path fill="#555454" d="M 787.614 0 L 803.603 0 L 879.423 0 L 896.526 0 C 881.483 14.939 864.487 30.8888 849.961 45.8664 C 861.345 56.8943 872.641 68.0118 883.849 79.2179 L 867.093 79.2122 C 850.395 78.9722 833.288 79.1314 816.554 79.096 C 812.25 79.3672 804.859 79.1394 800.333 79.1302 L 833.998 45.6877 C 820.75 34.059 800.646 12.8744 787.614 0 z" class="svgShape color555454-5 selectable"></path><path d="M803.603 0L879.423 0C867.252 10.8489 853.678 25.6629 842.179 37.6084 829.46 25.7106 816.342 12.2385 803.603 0zM842.256 53.7461C849.884 61.4178 860.212 71.2901 867.093 79.2122 850.395 78.9722 833.288 79.1314 816.554 79.096 822.668 72.2053 835.26 60.0555 842.256 53.7461zM896.526 0L900.469 0C915.416 14.8051 931.824 30.2988 946.407 45.1814 935.351 56.3329 923.216 69.0884 911.417 79.1891 902.35 79.4062 892.945 79.2476 883.849 79.2179 872.641 68.0118 861.345 56.8943 849.961 45.8664 864.487 30.8888 881.483 14.939 896.526 0zM917.229 0L989.668 0C978.603 10.8447 963.909 24.9807 954.417 36.9802 943.356 27.2909 927.974 10.8222 917.229 0zM928.163 78.7354C937.369 70.3606 945.792 61.8285 954.573 53.0185 962.585 61.86 970.773 70.5398 979.133 79.0526L944.366 79.1564C938.743 78.8878 933.808 78.6915 928.163 78.7354z" fill="#000000" class="svgShape color000000-6 selectable"></path><path fill="#555454" d="M 1006.5 0 L 1010.64 0 L 1027.16 0 L 1101.27 0 L 1118.56 0 L 1122.21 0 L 1168.29 45.5162 C 1158.03 56.0394 1145.53 69.5338 1134.81 79.1641 C 1125.54 79.3242 1115.82 79.1375 1106.51 79.1046 L 1089.31 79.0445 L 1039.62 79.0649 L 1022.49 79.0917 C 1013.26 79.2742 1003.56 79.091 994.293 79.0605 C 985.185 68.069 971.533 55.0391 961.352 44.97 C 976.531 30.0919 991.301 14.7265 1006.5 0 z" class="svgShape color555454-7 selectable"></path><path d="M1118.56 0L1122.21 0 1168.29 45.5162C1158.03 56.0394 1145.53 69.5338 1134.81 79.1641 1125.54 79.3242 1115.82 79.1375 1106.51 79.1046 1096.63 70.4612 1082.43 55.5831 1072.65 46.0669 1087.21 30.8628 1103.51 14.7573 1118.56 0zM1006.5 0L1010.64 0C1025.76 15.1345 1041.11 30.8645 1056.63 45.5337 1045.38 57.0595 1034.58 68.4302 1022.49 79.0917 1013.26 79.2742 1003.56 79.091 994.293 79.0605 985.185 68.069 971.533 55.0391 961.352 44.97 976.531 30.0919 991.301 14.7265 1006.5 0zM1027.16 0L1101.27 0C1088.79 12.1979 1076.57 24.6716 1064.64 37.412 1052.52 26.0955 1039.03 11.8983 1027.16 0zM1039.62 79.0649C1047.89 70.6276 1056.25 62.284 1064.71 54.0356L1089.31 79.0445 1039.62 79.0649z" fill="#000000" class="svgShape color000000-8 selectable"></path><path fill="#555454" d="M 556.96 0 L 561.869 0 L 578.237 0 L 653.524 0 L 670.413 0 L 624.617 45.7115 C 635.534 56.5007 647.377 68.9133 658.498 79.1649 L 642.229 79.1538 L 590.677 79.1881 L 574.087 79.0915 C 564.997 79.2856 555.618 79.1428 546.505 79.1203 C 535.701 69.8115 522.024 55.4008 511.629 45.0141 C 525.881 30.1773 542.271 14.6317 556.96 0 z" class="svgShape color555454-9 selectable"></path><path d="M556.96 0L561.869 0C575.199 13.8642 594.393 32.7275 608.628 45.6896 597.118 56.6061 585.639 68.5579 574.087 79.0915 564.997 79.2856 555.618 79.1428 546.505 79.1203 535.701 69.8115 522.024 55.4008 511.629 45.0141 525.881 30.1773 542.271 14.6317 556.96 0zM578.237 0L653.524 0C641.245 12.2961 628.13 25.0366 616.515 37.8596L578.237 0zM590.677 79.1881C596.948 72.5773 609.466 59.3913 616.566 53.9162 625.229 62.2177 633.784 70.6309 642.229 79.1538L590.677 79.1881z" fill="#000000" class="svgShape color000000-10 selectable"></path><path fill="#555454" d="M 1122.21 0 L 1138.85 0 L 1213.47 0 L 1229.61 0 L 1234.36 0 C 1249.57 16.0852 1264.83 30.7172 1280.18 46.4172 C 1269.64 56.9026 1258.5 67.6864 1248.87 78.9865 C 1237.92 79.4487 1229.38 79.4916 1218.46 79.2238 L 1201.17 79.1941 L 1150.77 79.2494 C 1146.23 79.5281 1139.56 79.2324 1134.81 79.1641 C 1145.53 69.5338 1158.03 56.0394 1168.29 45.5162 L 1122.21 0 z" class="svgShape color555454-11 selectable"></path><path d="M1229.61 0L1234.36 0C1249.57 16.0852 1264.83 30.7172 1280.18 46.4172 1269.64 56.9026 1258.5 67.6864 1248.87 78.9865 1237.92 79.4487 1229.38 79.4916 1218.46 79.2238 1208.07 68.2638 1195.52 56.3835 1184.69 45.6222 1199.98 30.7247 1214.95 15.5141 1229.61 0zM1138.85 0L1213.47 0C1200.94 11.7733 1188.66 24.6948 1176.62 37.0393 1163.99 25.0584 1151.29 12.2399 1138.85 0zM1176.53 53.7749C1182.43 59.7895 1196.38 73.2898 1201.17 79.1941L1150.77 79.2494C1157.51 71.9828 1169 59.9865 1176.53 53.7749z" fill="#000000" class="svgShape color000000-12 selectable"></path><path fill="#EFEFEF" d="M787.49 656.49L895.51 656.49 895.51 715.51 787.49 715.502 787.49 656.49zM787.52 803.49L895.51 803.49C895.585 823.151 895.013 842.892 895.51 862.51L787.512 862.682 787.52 803.49zM787.488 1096.49L894.674 1096.49 894.716 1155.65 787.49 1155.64 787.488 1096.49zM1155.28 803.49L1262.64 803.49 1262.71 862.591C1227.28 862.109 1190.79 862.56 1155.27 862.556L1155.28 803.49zM1155.18 656.49L1262.58 656.49 1262.74 715.51 1155.4 715.51 1155.18 656.49zM665.344 803.49L772.51 803.49 772.51 862.497 665.294 862.707 665.344 803.49zM1032.49 803.49L1139.51 803.49 1139.62 862.706 1032.48 862.502C1032.31 842.832 1032.31 823.16 1032.49 803.49zM665.402 1096.49L772.51 1096.49 772.51 1155.59C738.393 1156.47 699.702 1155.6 665.298 1155.67L665.402 1096.49zM1032.34 1096.49L1139.51 1096.49 1139.5 1155.51 1032.42 1155.64C1032.13 1136.1 1032.35 1116.07 1032.34 1096.49zM1155.32 1096.49L1262.51 1096.49 1262.48 1155.51 1155.34 1155.51 1155.32 1096.49zM787.305 877.49L894.732 877.49C894.49 896.515 895.733 915.695 895.387 935.704L832.003 936.012C820.675 936.108 798.382 937.597 788.059 934.927 786.918 928.349 787.345 886.958 787.305 877.49zM787.443 730.25L895.51 730.3 895.51 788.555C863.774 790.042 820.171 788.645 787.49 788.629L787.443 730.25zM1032.38 656.49L1139.58 656.49 1139.72 715.51 1032.5 715.51C1032.35 695.837 1032.31 676.163 1032.38 656.49zM665.429 656.49L772.51 656.49C772.481 667.089 773.43 707.974 771.733 715.51L665.376 715.51C665.162 695.837 665.18 676.162 665.429 656.49zM1032.33 877.49L1139.6 877.449 1139.6 935.667C1111.51 935.564 1083.6 936.703 1055.53 936.544 1047.99 936.502 1041.13 936.49 1033.69 935.118 1031.17 932.287 1032.3 884.842 1032.33 877.49zM1155.29 877.49L1262.51 877.431 1262.62 935.645 1155.3 936.51 1155.29 877.49zM910.263 803.49L1016.76 803.49 1016.66 862.51 910.316 862.51 910.263 803.49zM1278.31 803.49L1384.61 803.49 1384.73 862.51 1278.23 862.51 1278.31 803.49zM910.449 1096.49L1016.65 1096.49C1016.73 1116.18 1016.68 1135.88 1016.52 1155.57L910.423 1155.56C910.147 1135.87 910.156 1116.18 910.449 1096.49zM1278.45 1096.49L1384.76 1096.49C1384.68 1108.43 1383.85 1145.98 1385.32 1155.51L1278.26 1155.51C1278.14 1135.84 1278.2 1116.16 1278.45 1096.49zM1278.43 656.49L1346.91 656.448C1355.17 656.448 1377.27 656.006 1384.14 657.383 1386.51 665.29 1384.77 704.298 1384.72 715.51L1278.31 715.51C1278.12 695.837 1278.16 676.162 1278.43 656.49zM910.724 656.342C913.585 657.041 935.188 656.605 939.7 656.596L1016.69 656.49 1016.77 714.778C981.948 716.12 945.309 715.516 910.324 715.51 910.249 697.731 909.546 673.796 910.724 656.342zM1155.3 583.49L1262.67 583.49 1262.76 641.689C1226.53 641.517 1191.39 642.134 1155.32 642.51 1154.76 624.219 1155.29 602.037 1155.3 583.49zM1155.3 730.302L1262.71 730.262 1262.61 788.508 1155.32 788.638 1155.3 730.302zM1032.51 730.48C1067.93 730.007 1104.04 730.362 1139.51 730.362L1139.62 788.661 1032.31 788.727 1032.51 730.48zM910.281 877.49L1016.63 877.49 1016.72 935.673C992.158 935.47 966.784 937.195 942.028 936.584 931.716 936.33 920.411 937.237 910.276 935.485L910.281 877.49zM787.49 1024.42C821.774 1023.46 860.082 1024.31 894.691 1024.3 894.65 1035.72 893.858 1073.68 895.97 1082.4 862.513 1083.66 821.5 1082.51 787.438 1082.51L787.49 1024.42zM665.324 583.365L772.51 583.474 772.51 641.606 665.33 641.678 665.324 583.365zM665.348 877.49L772.51 877.475 772.51 935.555C738.681 936.668 699.618 935.736 665.372 935.76L665.348 877.49zM665.357 730.384L772.51 730.49 772.51 788.531C737.08 789.043 700.847 788.651 665.357 788.636L665.357 730.384zM1032.33 583.429C1067.59 583.969 1104.14 583.476 1139.51 583.482L1139.67 641.669 1065.53 641.827C1057.09 641.856 1039.56 642.745 1032.38 641.496L1032.33 583.429zM665.311 1024.29L772.51 1024.37 772.51 1082.51 665.317 1082.51 665.311 1024.29zM1032.65 950.656C1040.98 953.2 1125.29 951.322 1139.51 951.292 1139.66 970.698 1139.66 990.104 1139.52 1009.51 1125.37 1009.52 1039.15 1010.78 1032.84 1007.42 1031.8 997.674 1031.93 960.912 1032.65 950.656zM1155.94 1024.33L1262.56 1024.37C1262.82 1043.49 1262.82 1062.61 1262.55 1081.72 1230.34 1081.47 1184.95 1083.8 1154.49 1081.43 1154.56 1070.07 1153.12 1032.66 1155.94 1024.33zM1278.27 730.262C1313.63 730.761 1350.06 730.324 1385.51 730.338 1385.81 748.57 1384.66 769.586 1384.66 788.51 1354.74 790.016 1308.85 788.74 1278.31 788.473L1278.27 730.262zM787.456 951.302L894.744 951.338 894.644 1008.51C866.53 1007.87 836.094 1011.32 807.623 1009.26 800.873 1008.77 794.196 1008.57 787.429 1008.51L787.456 951.302zM1155.24 951.32L1262.67 951.297C1262.66 970.012 1263.09 989.945 1262.43 1008.51 1247.04 1008.27 1229.48 1009.04 1213.87 1009.5 1193.58 1010.1 1175.05 1008.71 1155.32 1008.51 1155.04 988.654 1155.19 971.048 1155.24 951.32zM1032.33 1024.32L1139.51 1024.34 1139.67 1081.71C1116.06 1081.57 1093.13 1082.39 1069.61 1082.55 1058.82 1082.62 1044.04 1083.02 1033.69 1081.15 1031.13 1078.29 1032.3 1031.63 1032.33 1024.32zM1277.49 877.49L1384.69 877.487 1384.74 935.716 1278.31 935.674C1278.28 915.748 1278.04 897.391 1277.49 877.49zM910.334 730.396L1016.66 730.349 1016.78 788.467C982.844 789.525 944.535 788.667 910.262 788.682L910.334 730.396zM787.49 583.49L894.714 583.493C894.415 602.034 895.53 622.336 895.51 641.437 888.338 642.264 867.117 641.765 858.978 641.757L787.49 641.65 787.49 583.49zM910.49 583.49L1016.71 583.49 1016.71 641.646 910.302 641.759 910.49 583.49zM665.43 950.49C701.003 950.317 736.693 951.345 772.51 951.3 772.618 970.37 772.585 989.44 772.408 1008.51 736.778 1008.5 700.755 1009.28 665.284 1008.51 665.144 989.171 665.193 969.83 665.43 950.49zM1278.31 1024.35L1385.51 1024.26 1385.51 1081.58C1362.23 1082.97 1337.27 1080.55 1313.77 1081.96 1302.24 1082.66 1290.73 1082.67 1279.27 1081.11 1277.26 1078.12 1278.27 1031.46 1278.31 1024.35zM910.331 1024.3L977.932 1024.25C989.692 1024.24 1005.2 1023.79 1016.71 1024.51L1016.74 1081.73C982.768 1081.33 945.204 1082.55 910.491 1082.5 909.63 1064.86 910.306 1042.3 910.331 1024.3zM1278.19 951.273L1384.73 951.274 1384.6 1008.51C1369.16 1008.3 1355.28 1009.2 1339.99 1009.43 1319.51 1009.56 1299.02 1009.58 1278.54 1009.5 1277.5 993.149 1278.24 968.28 1278.19 951.273zM1015.93 951.06L1016.45 951.571C1017.52 967.694 1016.71 991.809 1016.66 1008.51L911.441 1008.51 910.78 1008.14C909.631 1001.96 910.268 960.158 910.286 951.315 945.149 951.33 981.156 951.796 1015.93 951.06zM1278.39 586.849C1306.54 606.068 1352.31 603.573 1384.55 603.436L1384.72 641.695 1278.26 641.688 1278.39 586.849zM773.311 497.49L823.586 497.49 823.719 550.51 773.248 550.51 773.311 497.49zM681.49 517.33L728.51 517.248C728.503 526.588 729.878 550.245 726.947 557.51L681.495 557.508 681.49 517.33z" class="svgShape colorefefef-13 selectable"></path><path fill="#73B352" d="M 317.877 1296.74 C 326.59 1292.61 335.218 1288.51 344.958 1287.99 C 368.712 1286.72 393.263 1287.22 417.104 1287.21 L 543.327 1287.19 L 731.374 1287.14 C 765.784 1287.11 800.319 1286.9 834.631 1287.29 C 852.858 1287.5 869.833 1291.11 882.75 1304.65 C 910.573 1333.84 935.656 1367.07 963.463 1396.21 L 1444.41 1395.96 L 1626.04 1395.98 L 1676.42 1395.9 C 1688.31 1395.88 1700.88 1395.56 1712.67 1397.24 C 1717.86 1397.98 1726.22 1402.99 1730.75 1404.17 C 1745.79 1416.58 1745.49 1417.07 1756.61 1432.35 C 1765.79 1454.45 1763.32 1474.16 1763.11 1498.22 L 1763.08 1516.21 L 1763.08 1534.59 C 1763.06 1539.92 1762.85 1546.67 1763.15 1551.86 C 1763.18 1571.32 1763.44 1591.37 1763.17 1610.77 C 1763.09 1616.72 1762.83 1623.68 1763 1629.55 L 1763 1649.35 C 1762.99 1654.22 1762.8 1661.02 1763.07 1665.73 L 1763.06 1727.04 C 1763.03 1732.35 1762.89 1738.2 1763.04 1743.46 L 1762.99 1761.75 C 1763 1766.55 1762.83 1772.91 1763.03 1777.59 C 1763.04 1797.5 1763.47 1819.24 1762.69 1839.01 C 1761.33 1845.91 1760.22 1853.1 1759.04 1860.06 L 1756.63 1867.22 C 1755.27 1871.39 1753.84 1876.1 1752.29 1880.16 C 1741.05 1903.6 1730.58 1918.35 1711.64 1936.05 L 1703 1943.72 C 1683.51 1959.09 1663.67 1968.22 1639.49 1974.31 C 1634.57 1975.1 1627.43 1976.05 1622.78 1977.18 L 1621.01 1977.16 C 1613 1976.58 1599.23 1976.92 1590.85 1976.9 L 1522.34 1977.09 C 1486.33 1976.84 1450.31 1976.79 1414.29 1976.95 C 1395.39 1976.96 1374.18 1976.41 1355.56 1977.19 L 1346.44 1977.19 C 1331.22 1975.87 1300.23 1977.01 1284.03 1977.15 L 1270.44 1977.19 C 1244.79 1975.35 1198.92 1976.95 1172.34 1977.11 L 1149.37 1977.2 C 1143.1 1976.77 1136.02 1976.74 1129.72 1976.87 C 1093.63 1977.61 1056.96 1976.02 1020.92 1977.18 L 1003.03 1977.07 L 626.797 1976.99 L 513.952 1977 C 499.976 1977.01 468.288 1976.24 455.934 1977.83 C 448.232 1977.94 439.97 1978.25 432.354 1977.55 L 425.077 1984.55 C 416.892 1978.71 413.823 1975.25 403.81 1975.13 L 404.049 1976.57 C 406.612 1979.23 406.748 1979.58 408.529 1982.93 L 408.989 1983.81 C 403.897 1979.96 401.781 1976.88 397.956 1971.94 C 374.857 1963.1 367 1959.52 346.68 1944.98 C 343.359 1941.67 341.445 1940.02 337.739 1937.14 C 318.458 1919.28 307.748 1904.07 297.083 1879.98 C 293.435 1870.91 291.119 1861.17 288.219 1851.79 C 286.473 1842.23 285.93 1833.76 285.818 1824.09 C 286.558 1812.87 287.364 1755.65 285.322 1747.99 L 285.122 1747.23 C 286.261 1742.36 286.075 1720.44 286.082 1714.51 C 286.145 1691.94 286.07 1669.37 285.858 1646.8 L 285.868 1636.48 C 285.9 1613.69 286.811 1587.02 285.813 1564.63 L 285.907 1550.86 C 286.195 1546.01 285.966 1538.57 285.972 1533.52 L 285.894 1521.47 C 285.155 1508.36 286.552 1495.36 285.813 1481.71 L 285.995 1435.61 L 285.982 1419.29 L 285.863 1406.13 L 285.902 1388.09 C 285.465 1354.27 281.656 1335.62 302.755 1308.39 L 312.057 1300.8 C 314.275 1299.53 315.49 1298.55 317.524 1297.05 L 317.877 1296.74 z" class="svgShape color73b352-14 selectable"></path><path fill="#565555" d="M 397.956 1971.94 C 408.215 1973.76 422.254 1976.68 432.354 1977.55 L 425.077 1984.55 C 416.892 1978.71 413.823 1975.25 403.81 1975.13 L 404.049 1976.57 C 406.612 1979.23 406.748 1979.58 408.529 1982.93 L 408.989 1983.81 C 403.897 1979.96 401.781 1976.88 397.956 1971.94 z" class="svgShape color565555-15 selectable"></path><path fill="#EFEFEF" d="M1068.59 1607.42C1096.92 1606.31 1122.95 1615.47 1145.55 1632.2 1138.78 1642.69 1131.73 1652.42 1124.39 1662.51 1110.33 1650.27 1091.95 1642.13 1073.2 1641.78 1061.09 1641.56 1042.6 1645.8 1044.41 1660.88 1046.75 1680.41 1092.36 1682.59 1107.62 1689.48 1118.34 1694.33 1127.91 1695.7 1136.75 1704.54 1156.87 1721.76 1152.84 1756.49 1135.81 1774.74 1119.59 1792.12 1095.48 1796.68 1072.16 1797.43 1041.21 1796.98 1017.53 1789.47 993.488 1769.23 997.636 1761.19 1007.69 1746.26 1012.9 1738.07 1032.65 1753.1 1074.57 1775.98 1100.32 1752.66 1106.57 1747 1103 1733.81 1094.69 1729.64 1065.33 1714.9 1017.39 1720.15 1003.28 1683.52 997.476 1667.42 1001.3 1643.27 1012.61 1630.5 1027.09 1614.13 1047.55 1608.69 1068.59 1607.42zM815.907 1610.01C833.089 1609.95 850.271 1610.06 867.45 1610.31L805.265 1701.08C811.805 1709.89 869.718 1789.67 870.274 1793.94L818.75 1794.35C804.499 1773.65 790.759 1752.6 777.542 1731.23 765.178 1752.11 751.122 1773.42 738.019 1793.95 720.975 1794.16 703.645 1794.01 686.576 1794.02 707.611 1762.98 729.754 1732.83 750.673 1701.93 745.723 1691.81 731.322 1672.05 724.375 1662L688.997 1610C706.323 1610.33 724.259 1610.09 741.633 1610.08 754.113 1630.53 766.062 1651.5 779.366 1671.39 790.046 1651.59 804.142 1629.62 815.907 1610.01zM1168.68 1609.81L1220.94 1609.87C1232.28 1630.1 1245.75 1650.89 1258.47 1670.32 1269.57 1650.7 1283.04 1629.43 1294.84 1610.01L1346.72 1609.95C1326.01 1637.67 1303.97 1671.33 1284.17 1700.2 1305.1 1731.14 1328.09 1761.31 1349.11 1792.43L1348.77 1793.55 1345.25 1793.85 1297.76 1794.25C1284.15 1773.53 1269.27 1751.71 1256.86 1730.39 1243.82 1751.91 1230.28 1773.13 1216.26 1794.03 1199.59 1794.4 1182.02 1794.09 1165.28 1794.05 1175.77 1779.35 1185.75 1763.86 1196.25 1749.1 1207.66 1733.07 1219.11 1717.4 1229.95 1700.94 1213.23 1673.75 1186.94 1636.82 1168.68 1609.81zM911.375 1551.51L943.214 1551.31 942.992 1668.99C942.944 1695.42 941.315 1724.39 945.084 1750.21 946.913 1762.75 967.409 1756.91 974.239 1754.75 975.793 1766.25 978.318 1777.3 981.06 1788.54 976.093 1790.62 971.448 1792.11 966.357 1793.78 943.101 1800.64 906.629 1800.44 900.328 1771.59 894.726 1745.94 896.858 1714.08 896.871 1687.64L896.924 1551.69 911.375 1551.51z" class="svgShape colorefefef-16 selectable"></path><path d="M 0 847.545 L 18.8171 828.547 C 34.6174 845.072 51.2864 862.433 67.8468 878.205 C 55.8058 889.814 41.4197 905.067 29.2938 915.614 C 39.6354 927.955 54.2947 942.31 65.7122 954.09 C 49.3152 970.112 33.249 986.469 17.5237 1003.15 C 11.6088 997.449 5.76706 991.673 -1.13687e-13 985.822 L 0 924.656 L 0 906.499 L 0 847.545 z" fill="#000000" class="svgShape color000000-17 selectable"></path><path fill="#565555" d="M 0 906.499 C 3.02937 909.487 6.09942 912.396 8.89117 915.603 L 0 924.656 L 0 906.499 z" class="svgShape color565555-18 selectable"></path><path d="M1343.49 0L1347.8 0C1363.11 15.7538 1378.96 30.6769 1394.22 46.5577 1377.92 62.0184 1361.21 79.6493 1345.4 95.7849 1328.68 79.2754 1313.67 63.1535 1296.44 46.7015 1309.16 32.2281 1329.25 13.8895 1343.49 0zM1570.21 0L1574.47 0C1588.4 14.375 1606.48 32.9624 1621.14 46.1428 1606.49 61.9335 1587.93 79.6708 1572.52 95.1411 1556.45 78.7163 1539.73 62.2241 1523.41 46.036 1539.34 31.0338 1554.95 15.6848 1570.21 2.27374e-13zM243.735 1705.89C256.376 1718.9 271.654 1735.18 285.122 1747.23L285.322 1747.99C285.456 1752.35 285.327 1757.08 285.298 1761.47 271.485 1775.47 257.894 1789.69 244.53 1804.12 234.683 1796.06 204.076 1764.91 195.414 1755.05 210.273 1739.02 228.224 1721.61 243.735 1705.89zM1911.17 0L1915.18 0C1930.38 16.4521 1947.32 31.0343 1961.98 46.827 1955 53.77 1917.95 92.1478 1913.44 95.0942 1911.76 92.3725 1902.18 83.7992 1899.27 81.0776 1887.99 69.2332 1876.11 58.2068 1864.73 46.4683 1880.36 31.631 1896.05 15.4159 1911.17 0zM1683.17 0L1688.09 0C1703.19 15.7431 1719.36 30.6377 1734.61 46.5869 1718.3 62.1462 1702.4 78.129 1686.92 94.5191 1670.93 80.1444 1652.41 61.4246 1637.06 46.0997 1652.72 31.03 1668.1 15.6606 1683.17 0zM244.43 1477.85C251.358 1486.57 283.473 1517 285.894 1521.47L285.972 1533.52C273.597 1544.53 255.539 1563.8 244.606 1576.04 229.302 1561.82 209.801 1542.2 195.624 1526.98 211.297 1511.44 228.504 1492.31 244.43 1477.85zM1797.41 0L1801.58 0C1816.96 16.4017 1832.28 31.1417 1848.34 46.8598 1832.19 62.3989 1816.12 79.1165 1800.4 95.1485 1784.27 78.7024 1767.87 62.5168 1751.22 46.5982 1766.59 31.6972 1783.05 15.7727 1797.41 0zM1456.28 0L1460.6 0C1474.94 15.3847 1492.03 31.6958 1507.05 46.6065 1490.96 62.5103 1474.96 78.5091 1459.05 94.602 1443.14 79.5152 1426.13 61.7602 1410.33 46.1227 1425.99 31.0918 1441.31 15.7137 1456.28 0zM244.598 1364.37C258.001 1378.64 271.76 1392.56 285.863 1406.13L285.982 1419.29C276.56 1427.17 254.873 1451.2 243.986 1461.5 227.832 1445.34 212.258 1428.45 195.962 1412.24 212.381 1396.47 228.077 1379.95 244.598 1364.37zM195.988 1641.1C212.042 1624.96 227.976 1608.69 243.79 1592.31 250.411 1599.44 283.355 1631.96 285.868 1636.48L285.858 1646.8C282.825 1651.21 250.302 1683.81 244.502 1689.85 230.211 1677.11 210.589 1655.42 195.988 1641.1zM1759.04 1860.06C1765.12 1856.12 1795.38 1823.9 1801.99 1816.48 1817.59 1833.44 1833.91 1849.31 1850.12 1865.68 1834.33 1881.56 1817.6 1897.52 1802.1 1913.51 1789.09 1899.88 1770.39 1879.87 1756.63 1867.22L1759.04 1860.06zM1763.04 1743.46C1776.23 1730.35 1789.18 1717.01 1801.89 1703.44 1817.9 1720.03 1834.43 1735.68 1850.52 1752.03 1832.92 1768.79 1819.12 1782.76 1802.64 1800.69 1795.95 1793.85 1769.18 1765.87 1762.99 1761.75L1763.04 1743.46zM1801.46 1589.83C1817.02 1606.07 1834.5 1622.77 1849.51 1639.09 1833.1 1654.54 1817.23 1670.53 1801.9 1687.05 1795.76 1680.9 1768.48 1652.76 1763 1649.35L1763 1629.55C1775.96 1616.44 1788.78 1603.2 1801.46 1589.83zM346.68 1944.98C367 1959.52 374.857 1963.1 397.956 1971.94 401.781 1976.88 403.897 1979.96 408.989 1983.81 404.909 1989.73 367.123 2026.7 359.176 2034.6 343.34 2019.53 325.142 1999.69 309.224 1983.64 319.946 1972.22 337.347 1956.66 346.68 1944.98zM1801.11 1476.46C1817.09 1492.8 1833.33 1508.89 1849.82 1524.72 1834 1540.49 1817.28 1556.79 1802.18 1573.16 1792.71 1563.6 1772.46 1542.15 1763.08 1534.59L1763.08 1516.21C1768.69 1508.48 1793.48 1484.17 1801.11 1476.46zM304.369 89.3917C315.571 100.648 332.439 116.657 342.415 128.517 331.939 143.263 326.34 153.408 321.062 170.933 316.507 172.418 307.38 182.046 303.546 185.756 287.42 170.324 271.363 153.775 255.59 137.912 271.702 121.59 287.962 105.416 304.369 89.3917zM273.04 0L279.803 0 330.566 0 353.761 23.4673C337.165 39.7654 320.827 56.3243 304.753 73.138 293.776 62.3248 282.881 51.4289 272.068 40.4513 268.38 36.7204 258.693 26.4855 255.051 23.6757L254.816 21.4257C255.809 18.4802 257.448 17.5352 259.833 15.5073L259.715 16.3086C264.874 10.753 268.213 5.10342 273.04 0z" fill="#000000" class="svgShape color000000-19 selectable"></path><path fill="#565555" d="M 273.04 0 L 279.803 0 C 275.242 4.42132 259.136 20.8488 255.051 23.6757 L 254.816 21.4257 C 255.809 18.4802 257.448 17.5352 259.833 15.5073 L 259.715 16.3086 C 264.874 10.753 268.213 5.10342 273.04 0 z" class="svgShape color565555-20 selectable"></path><path d="M392.451 0L446.253 0C453.726 6.62132 462.193 15.6315 469.33 22.8381 454.673 37.9697 433.638 57.0438 420.473 71.9483 404.066 57.1951 386.279 38.7285 370.673 22.8439 378.158 15.4473 385.42 7.82927 392.451-5.68434e-14zM51.7259 0L101.183 0C109.292 7.97695 117.336 16.0195 125.315 24.1268 108.976 40.6546 92.81 56.5088 76.8161 73.4447 60.201 57.2183 44.2641 40.4119 27.4867 24.3504 35.4652 16.1334 43.5455 8.01596 51.7259-1.13687e-13zM362.089 31.1597C372.987 42.7354 405.409 72.9933 412.244 82.7011 386.892 89.2045 368.695 100.217 350.482 119.013 337.605 106.188 325.907 94.307 312.565 81.8334 324.237 67.8155 347.75 46.7073 362.089 31.1597zM165.577 0L215.199 0C223.003 7.99635 230.952 15.8497 239.043 23.556 222.932 39.6299 205.863 56.1659 190.499 72.855 174.519 56.9357 158.07 39.2113 141.722 23.9818L165.577 0zM2025 0L2028.71 0 2048 0 2048 19.6162 2048 73.1673C2041.67 80.3097 2033.96 87.6545 2027.13 94.4434 2010.75 78.9953 1995.14 62.4623 1978.44 46.8018 1992.76 31.6552 2010.1 15.1321 2025 0z" fill="#000000" class="svgShape color000000-21 selectable"></path><path fill="#555454" d="M 2028.71 0 L 2048 0 L 2048 19.6162 L 2028.71 0 z" class="svgShape color555454-22 selectable"></path><path d="M2027.06 111.453C2034.33 118.714 2041.06 125.497 2048 133.121L2048 188.082C2042.4 194.434 2033.29 202.763 2027.02 208.849 2010.63 193.001 1994.26 176.51 1978.04 160.433 1994.5 144.069 2010.4 127.741 2027.06 111.453zM1979.05 1410.8C1993.09 1395.5 2012.7 1376.96 2027.71 1361.97L2048 1382.45 2048 1439.58 2027.76 1459.69C2011.19 1443.73 1994.95 1427.43 1979.05 1410.8zM2027.56 1133.76C2034.18 1140.68 2041.23 1147.58 2048 1154.39L2048 1210.27C2041.79 1217.42 2034.93 1225.38 2027.17 1230.86 2010.82 1215.01 1994.66 1198.97 1978.69 1182.75 1995.08 1166.52 2011.37 1150.19 2027.56 1133.76zM2027.19 225.734C2034.05 232.552 2041 240.203 2048 247.242L2048 303.261 2027.59 323.048 1978.63 274.437C1989.94 261.204 2014.37 238.13 2027.19 225.734zM2027.46 339.737L2048 360.317 2048 415.435C2042.27 422.315 2033.74 430.554 2027.34 437.088 2011.49 420.764 1994.76 405.196 1978.79 388.619L2027.46 339.737zM2027.16 453.455L2048 475.235 2048 530.42C2041.2 537.337 2034.46 544.31 2027.77 551.338L1978.5 502.877C1993.74 486.741 2011.44 469.632 2027.16 453.455zM2027.15 680.574C2033.98 687.921 2041.07 695.234 2048 702.509L2048 757.3C2041.29 764.372 2034.47 771.341 2027.55 778.206 2011.36 762.355 1994.11 746.181 1978.61 729.787 1995.12 713.714 2011.31 697.307 2027.15 680.574zM2027.21 567.088C2034.04 574.303 2040.97 581.42 2048 588.434L2048 643.152C2042.28 649.722 2033.57 658.065 2027.3 664.442 2010.97 648.341 1995.09 631.907 1978.47 616.067 1994.31 599.712 2011.11 583.258 2027.21 567.088zM1703 1943.72C1714.2 1955.39 1725.5 1966.96 1736.91 1978.43 1720.58 1994.87 1705.25 2009.96 1689.11 2026.77 1679.12 2017.03 1643.97 1985.06 1639.78 1974.95 1639.69 1974.74 1639.59 1974.52 1639.49 1974.31 1663.67 1968.22 1683.51 1959.09 1703 1943.72zM1978.68 1296.96C1994.16 1280.66 2011.97 1263.54 2027.97 1247.52 2033.99 1254.5 2041.55 1262.03 2048 1268.76L2048 1324.3C2041.35 1331.36 2034.61 1338.33 2027.78 1345.23 2011.33 1329.2 1995.35 1312.78 1978.68 1296.96zM19.3354 31.6302C34.4032 48.4403 52.4283 64.9361 68.2636 81.4919 52.0817 97.6589 35.8943 114.031 19.5293 129.996L0 109.981 0 52.2931C6.58123 44.5808 12.8827 38.8164 19.3354 31.6302zM0 165.599C6.44238 159.155 13.0085 152.406 19.5611 146.112L68.314 195.012C53.5904 209.611 32.5871 229.387 19.1719 244.346 12.6306 237.896 6.15385 231.628 0 224.794L0 165.599zM2027.24 1476.29L2048 1498.15 2048 1552.11C2042.5 1558.5 2033.76 1566.89 2027.68 1573.09 2011.43 1556.92 1994.86 1541.27 1978.7 1524.98 1994.33 1508.86 2011.33 1492.49 2027.24 1476.29zM1978.81 954.171C1994.19 940.182 2012.26 918.336 2026.82 906.243 2033.78 913.747 2040.75 920.68 2048 927.883L2048 981.039C2041.83 988.253 2034.07 996.109 2027.49 1003.09 2011.17 986.873 1994.95 970.565 1978.81 954.171zM2027.64 1816.46C2034.26 1822.54 2041.54 1830.12 2048 1836.53L2048 1892.84C2042.55 1899.46 2034.08 1907.59 2027.91 1913.87 2011.86 1897.59 1995.69 1881.43 1979.37 1865.42 1995.74 1849.37 2011.83 1833.05 2027.64 1816.46zM2027.1 1019.36L2048 1040.53 2048 1095.51C2041.76 1103 2034.58 1109.91 2027.68 1116.83L1979.04 1067.84C1993.35 1054.68 2014.29 1033.83 2027.1 1019.36zM2027.08 794.403L2048 816.359 2048 870.217C2042.65 876.447 2033.55 885.097 2027.57 891.149 2011.84 875.046 1995.08 858.971 1979.13 842.876L2027.08 794.403zM2027.43 1703.36L2048 1724.49 2048 1779.27 2028.44 1800.1C2012.27 1785.11 1994.58 1767.79 1979 1752.15 1994.96 1735.7 2011.49 1719.9 2027.43 1703.36zM19.5119 373.674C35.3909 390.367 52.2643 406.074 67.97 422.522 51.69 438.577 35.5606 454.785 19.5842 471.143 12.6556 464.505 6.59337 458.561 0 451.526L0 392.57C6.17415 386.421 12.9873 379.315 19.5119 373.674zM0 619.817C5.88567 613.681 12.64 606.279 18.845 600.634 32.512 614.6 53.6748 636.859 68.0903 649.468 53.0475 664.374 33.2242 683.081 19.2942 698.376 12.6219 692.052 6.18613 685.484 5.68434e-14 678.685L0 619.817zM2027.51 1589.91L2048 1610.32 2048 1665.68C2042.87 1671.87 2033.73 1680.63 2027.87 1686.58 2011.93 1670.47 1995.88 1654.46 1979.73 1638.56 1992.21 1624.27 2013.66 1603.99 2027.51 1589.91zM297.083 1879.98C307.748 1904.07 318.458 1919.28 337.739 1937.14 330.674 1946.49 310.608 1965.99 301.559 1975.18 288.18 1963.49 265.545 1939.28 252.281 1926.02 266.852 1910.85 283.188 1895.73 297.083 1879.98zM0 734.452C6.2325 727.208 12.15 721.22 18.8391 714.448 34.4692 731.261 51.3911 747.718 67.6849 763.952 51.3651 779.999 35.1624 796.165 19.078 812.448L0 793.529 0 734.452zM2027.47 1929.83C2034.51 1936.86 2041.35 1944.08 2048 1951.48L2048 2006.31C2041.51 2013.65 2035.3 2020.11 2028.49 2027.1 2012.38 2010.76 1996.13 1994.56 1979.74 1978.5 1993.9 1964.66 2014.89 1944.64 2027.47 1929.83zM-1.13687e-13 279.458C6.14778 272.86 12.3891 266.351 18.722 259.931 34.0077 275.918 53.3059 293.354 67.4631 309.099 51.6661 324.926 35.049 341.119 19.5466 357.14 12.8629 350.822 6.34516 344.33 0 337.672L0 279.458zM19.2813 487.301C34.4807 503.24 53.2314 520.301 67.4254 535.859 51.1481 551.893 35.061 568.119 19.1673 584.533 12.6586 578.08 6.21873 571.769 0 565.024L0 507.002C6.21469 500.231 12.6451 493.66 19.2813 487.301zM0 1265.6C5.346 1260.01 11.2928 1253.51 16.9432 1248.38 32.2126 1263.85 50.1904 1282.99 65.8168 1297.62 50.2149 1313.52 33.2335 1331.76 17.3847 1347.05L0 1329.69 0 1265.6zM0 1951.82C5.64808 1945.55 10.9145 1940.3 16.949 1934.37L65.6771 1984.1C51.2502 1998.43 30.9529 2020.36 16.9037 2033.14L0 2017.5 0 1951.82zM0 1380.1C5.38156 1374.62 11.4418 1368.14 17.0099 1362.98 32.5118 1379.27 51.2046 1396.42 65.7777 1412.39L17.2052 1461.85C10.8443 1455.45 5.8297 1450.34 0 1443.44L0 1380.1zM17.3191 1134.07C33.3525 1150.74 49.5296 1167.28 65.8486 1183.67 51.3295 1198.06 31.7558 1218.97 17.3691 1232.15 11.0513 1226.56 5.94722 1221.53 0 1215.53L0 1152.39C5.88428 1145.84 11.0748 1140.27 17.3191 1134.07zM0 1036.5C5.79337 1030.34 10.758 1025.16 16.9429 1019.41 32.8897 1036.25 49.1943 1052.74 65.8458 1068.87 49.3088 1085.03 34.0066 1100.95 17.914 1117.48 11.3517 1111.71 6.16781 1106.66 0 1100.45L0 1036.5zM301.281 1190.98C306.237 1195.67 314.954 1203.5 317.954 1209.47 317.977 1230.14 318.402 1252.95 317.813 1273.44 314.899 1277.07 305.351 1286.2 301.658 1289.93L252.49 1241.03C268.074 1223.9 285.228 1208.84 301.281 1190.98zM0 1837.77C5.55083 1831.88 11.2099 1826.09 16.9744 1820.4 32.7321 1836.23 49.7026 1853.96 65.744 1869.26 50.3919 1884.46 32.7086 1903.52 17.5108 1917.87 11.172 1911.93 5.93074 1906.85 0 1900.52L0 1837.77zM17.2583 1592.31C33.0511 1608.81 49.0785 1625.07 65.3358 1641.11 49.151 1657.4 33.0732 1673.79 17.1035 1690.29 10.9676 1684.41 5.64789 1679.34 0 1672.93L0 1609.5C5.72369 1603.79 11.4784 1597.94 17.2583 1592.31zM0 1723.63C4.86326 1718.44 11.4958 1710.94 16.7509 1706.57 31.9856 1722.2 49.5554 1740.8 65.4372 1755.59 50.0439 1771.15 32.9673 1789.33 17.3395 1804.31 11.4358 1798.74 5.43526 1793.25 0 1787.23L0 1723.63zM0 1495.63C5.71813 1488.9 10.5577 1483.97 16.8437 1477.71 32.1168 1494.07 49.2578 1512.12 65.4902 1527.63L17.5414 1576.03C11.5933 1570.29 5.74529 1564.46 0 1558.52L0 1495.63zM1743.05 510.488C1759.36 526.972 1775.81 543.323 1792.39 559.54 1776.08 575.07 1760.38 593.011 1744.48 607.808 1741.98 605.364 1733.16 596.01 1730.96 594.991L1730.78 557.383 1713.65 540.59C1721.68 532.624 1736.15 518.771 1743.05 510.488zM303.527 202.123C308.349 206.634 316.729 213.391 318.032 219.582 317.69 241.942 318.156 264.316 317.857 286.603L303.547 300.025C287.237 283.984 271.05 267.818 254.989 251.528 271.396 235.285 287.577 218.815 303.527 202.123zM254.785 821.594C265.135 809.136 290.459 784.863 302.807 772.377 308.402 777.849 312.251 782.034 317.37 787.974 316.543 793.799 317.053 808.955 317.135 815.429 317.396 829.152 317.365 842.879 317.042 856.601 312.596 860.896 307.841 866.052 303.502 870.549 294.09 862.134 282.007 848.99 272.954 839.679 267.034 833.625 260.804 827.578 254.785 821.594zM303.595 316.304C308.426 320.704 312.436 325.088 316.885 329.858 316.905 337.619 316.598 348.092 317.768 355.537 317.829 368.595 317.553 383.254 317.993 396.17 316.965 402.178 307.887 409.409 303.26 413.799 287.76 399.403 269.852 380.451 254.678 365.264 266.716 351.734 289.852 330.074 303.595 316.304zM303.413 430.242L317.37 444.163C316.734 447.711 316.995 462.779 316.999 467.139L316.898 514.93C312.437 518.995 307.76 523.786 303.415 528.054 293.846 519.745 281.942 506.847 272.845 497.472L254.396 479.228C270.906 463.072 287.246 446.742 303.413 430.242zM1067.26 1984.62C1082.99 2000.36 1101.33 2018.01 1116.38 2034.07 1112.2 2038.74 1108.02 2043.6 1103.57 2048L1035.61 2048C1029.84 2042.99 1025.28 2039.09 1020.09 2033.51 1036.07 2017.47 1051.79 2001.17 1067.26 1984.62zM1293.39 1984.88C1309.33 2002.02 1327.93 2018.48 1342.72 2034.87 1338.19 2039.58 1334.29 2043.6 1329.44 2048L1260.14 2048C1255.29 2043.47 1250.25 2038.93 1245.69 2034.13 1261.74 2017.86 1277.65 2001.44 1293.39 1984.88zM1744.38 624.245C1758.79 639.322 1777.54 658.497 1792.68 672.992 1777.19 689.029 1760.39 706.275 1744.3 721.749 1740.8 718.34 1734.53 711.863 1730.97 709.06L1730.94 636.44 1744.38 624.245zM1730.8 1204.63L1744.57 1190.85C1759.28 1206.01 1778.93 1224.7 1792.65 1239.98L1744.6 1288.22C1739.59 1283.53 1735.65 1279.5 1730.96 1274.48 1730.73 1251.2 1730.68 1227.92 1730.8 1204.63zM1180.24 1985.25C1195.06 2000.57 1215.26 2019.4 1228.86 2034.37 1224.53 2038.86 1220.08 2043.63 1215.67 2048L1147.57 2048C1143 2043.61 1137.4 2038.49 1133.18 2033.91 1147.74 2018.32 1164.99 2000.16 1180.24 1985.25zM1471.05 2034.83C1484.96 2020.6 1506.81 2000 1518.87 1985.49 1535.37 2003.45 1551.47 2017.92 1568.42 2034.94 1563.92 2039.55 1559.77 2044.07 1554.65 2048L1484.6 2048C1480.17 2043.71 1475.33 2039.2 1471.05 2034.83zM1744.73 1076.51C1759.69 1092.81 1778.76 1110.22 1792.22 1125.34 1776.35 1141.74 1760.39 1158.04 1744.31 1174.24 1739.57 1169.85 1735.44 1165.95 1730.96 1161.3L1730.87 1089.76C1734.72 1086.07 1740.85 1079.67 1744.73 1076.51zM1744.26 737.539C1760.15 753.905 1776.25 770.082 1792.53 786.067 1777.55 802.345 1761.01 818.558 1745.18 834.008 1740.01 830.288 1735.41 825.184 1730.93 820.604L1730.87 750.862C1734.85 746.825 1740.15 741.165 1744.26 737.539zM1744.17 1304.87C1759.25 1321.37 1776.59 1338.12 1792.47 1354.05 1777.38 1369.24 1758.71 1387.13 1744.66 1402.8 1740.32 1398.55 1735.49 1393.63 1730.97 1389.67L1730.96 1318.03C1735.25 1314 1740.17 1308.35 1744.17 1304.87zM1745.14 1986.19C1760.61 2002.83 1777.75 2019.19 1793.86 2035.36 1789.58 2040.27 1786.69 2043.68 1781.8 2048L1710.3 2048C1705.34 2043.58 1701.24 2039.94 1696.67 2035.09L1745.14 1986.19zM1923.33 2035.1C1939.07 2019.55 1956.04 2001.41 1971.65 1986.5 1987.34 2003.02 2004.08 2019 2020.42 2034.92 2016.15 2039.52 2012.28 2043.79 2007.61 2048L1936.64 2048C1932.16 2043.79 1927.51 2039.59 1923.33 2035.1zM1744.61 962.736C1760.41 979.61 1776.5 994.747 1792.23 1011.23 1777.15 1026.41 1759.58 1045.03 1744.06 1059.38 1740.78 1055.85 1734.37 1048.62 1730.95 1045.94L1730.73 976.722C1735.41 971.653 1739.39 967.311 1744.61 962.736zM1359.22 2034.8C1374.78 2018.19 1391.11 2002.54 1406.86 1986.22 1422.41 2002.82 1439.71 2018.53 1454.75 2034.87 1450.2 2039.76 1446.57 2043.46 1441.68 2048L1373.03 2048C1368.66 2043.87 1363.32 2039.06 1359.22 2034.8zM1858.51 1986.43C1874 2003.05 1890.75 2018.96 1906.71 2035.21 1902.64 2039.59 1898.74 2043.82 1894.45 2048L1823.33 2048C1819.05 2043.88 1814.53 2039.37 1810.17 2035.39 1825.59 2019.88 1843 2001.25 1858.51 1986.43zM1752.29 1880.16C1764.18 1894.63 1779.68 1909.05 1793.16 1922.26 1777.03 1937.93 1761.15 1953.85 1745.51 1970.01 1735.88 1960.25 1721.6 1944.83 1711.64 1936.05 1730.58 1918.35 1741.05 1903.6 1752.29 1880.16zM1632.01 1986.42C1647.63 2002.88 1663.54 2019.07 1679.72 2034.98 1675.07 2040.22 1672.05 2043.26 1666.87 2048L1597.82 2048C1593.53 2043.81 1588.62 2039.21 1584.54 2034.9 1600.25 2018.63 1616.07 2002.47 1632.01 1986.42zM1744.53 850.814C1759.43 866.138 1777.87 883.44 1791.9 898.422 1774.62 913.272 1760.27 929.798 1744.2 945.44 1739.56 940.941 1735.36 936.776 1730.93 932.074L1730.92 864.526C1734.91 860.397 1740.33 854.473 1744.53 850.814zM455.934 1977.83C476.312 1978.07 496.693 1978.09 517.072 1977.87L524.08 1985.43C507.439 2001.75 490.948 2018.21 474.61 2034.83 458.215 2017.96 441.703 2001.2 425.077 1984.55L432.354 1977.55C439.97 1978.25 448.232 1977.94 455.934 1977.83zM187.055 1991.43C203.078 2008.26 219.329 2024.87 235.804 2041.25L229.158 2048 145.508 2048 138.253 2041.08C154.311 2024.4 171.161 2008.09 187.055 1991.43zM301.073 1991.76C318.039 2008.5 334.052 2025.57 351.206 2042.23L345.635 2048 258.922 2048 252.071 2041.51C267.183 2026.43 287.154 2007.52 301.073 1991.76zM73.3406 1991.71C88.4024 2007.21 108.324 2025.99 122.311 2041.12 119.902 2043.43 117.475 2045.72 115.031 2048L31.5367 2048 24.1776 2041.31C40.7824 2024.99 57.1714 2008.46 73.3406 1991.71zM1288.32 54.2135C1304.37 70.9131 1320.67 87.3605 1337.23 103.55 1327.1 113.739 1316.83 123.777 1306.4 133.661 1290.3 116.964 1272.64 99.9486 1257.28 82.7941 1269.15 75.5035 1278.14 63.6448 1288.32 54.2135zM1401.13 167.577C1417.3 184.435 1433.86 200.558 1450.23 217.152 1440.36 227.183 1430.24 236.969 1419.88 246.5 1404.27 230.608 1387.19 214.436 1371.27 198.588 1379.59 188.03 1391.72 178.135 1401.13 167.577zM1345.09 111.525C1361.38 127.619 1377.54 143.833 1393.59 160.166 1388.1 165.304 1366.66 187.36 1362.82 189.749 1347.35 173.895 1330.7 158.189 1314.97 142.288 1322.59 133.288 1336.41 120.219 1345.09 111.525zM710.871 2042.57C727.395 2026.36 744.142 2009.24 760.668 1993.26 776.957 2009.73 793.356 2026.1 809.865 2042.35L803.243 2048 717.854 2048 710.871 2042.57zM1686.23 453.416C1699.52 467.727 1724.57 489.737 1735.2 502.481 1730.45 507.323 1709.74 528.82 1704.95 531.692 1688.64 516.169 1672.3 499.235 1656.4 483.198 1665.89 473.685 1676.53 462.485 1686.23 453.416zM1572.17 339.463L1621.33 388.419C1611.9 397.76 1600.53 409.566 1590.69 418.06L1542.4 369.683C1551.58 360.089 1562.42 348.42 1572.17 339.463zM596.46 2042.74C611.751 2027.59 631.5 2009.02 645.775 1993.34 661.701 2009.22 679.319 2027.51 695.615 2042.74L689.377 2048 602.753 2048 596.46 2042.74zM1485.71 312.79C1495.09 302.302 1505.09 292.449 1515.01 282.464 1531.07 299.099 1547.43 315.44 1564.08 331.478 1557.24 338.344 1540.44 355.887 1533.69 361.033 1517.55 345.103 1501.55 329.022 1485.71 312.79zM1458.44 224.811C1473.05 241.87 1491.64 258.094 1507.01 274.685L1477.28 304.105 1428.31 255.34C1435.51 249.575 1450.87 232.464 1458.44 224.811zM825.742 2042.25C842.331 2026.31 858.661 2010.1 874.726 1993.64 889.671 2009.68 911.296 2027.79 924.36 2042.92 923.687 2045.49 922.487 2046.14 920.492 2048L831.899 2048 825.742 2042.25zM367.436 2042.66L416.671 1993.19C432.409 2010.16 450.96 2026.35 465.648 2042.55 464.944 2045.28 464.012 2045.87 462.106 2048L373.617 2048 367.436 2042.66zM1629.02 396.41L1678.11 445.642 1648.2 474.977C1631.74 459.336 1616.23 443.154 1599.98 427.335 1606.13 418.917 1621.36 404.832 1629.02 396.41zM487.665 2048L483.623 2043.35C483.963 2040.26 526.165 1999.52 531.722 1994.17 547.185 2010.75 563.165 2026.85 579.639 2042.43 578.933 2045.29 578.083 2045.78 576.095 2048L487.665 2048zM1346.44 1977.19L1355.56 1977.19C1366.44 1978.28 1388.53 1977.69 1400.03 1977.66 1384.22 1991.71 1366.24 2011.22 1351.26 2026.65 1334.09 2010.68 1320.2 1994 1302.08 1977.8 1316.43 1977.74 1332.25 1977.98 1346.44 1977.19zM1622.78 1977.18C1622.33 1980.26 1582.91 2020.06 1577.01 2026.54 1560.61 2011.02 1544.6 1992.46 1527.47 1977.88 1546.29 1977.71 1565.11 1977.71 1583.93 1977.88 1594.46 1977.93 1611.02 1978.43 1621.01 1977.16L1622.78 1977.18zM1149.37 1977.2L1172.34 1977.11C1167.31 1985.58 1134.03 2016.82 1125.15 2025.87 1108.09 2010.2 1095.9 1993.97 1076.49 1977.85 1100.21 1977.39 1125.89 1978.33 1149.37 1977.2zM1270.44 1977.19L1284.03 1977.15C1283.33 1979.6 1242.27 2021.05 1237.57 2026.02 1221.78 2011.58 1206.4 1993.66 1189.27 1977.84 1214.47 1977.76 1245.74 1978.5 1270.44 1977.19zM1003.03 1977.07L1020.92 1977.18C1031.02 1978.42 1048.81 1977.77 1059.37 1977.65 1043.13 1992.61 1027.27 2009.46 1012.2 2025.57 1002.55 2017.88 992.838 2007.04 984.462 1997.85 992.15 1992.45 997.479 1984.65 1003.03 1977.07zM1818.08 0L1895.46 0C1882.64 11.9993 1869.26 26.0784 1856.83 38.6515 1847.26 30.5453 1827.85 9.6781 1818.08 0zM1590.51 0L1667.36 0C1654.36 12.502 1642.08 25.5305 1629.17 38.1325 1617.23 27.2647 1602.5 11.656 1590.51 0zM1932.09 0L2009.16 0C1996.26 11.2636 1982.43 25.9631 1970.65 38.544 1957.99 26.6272 1945.02 12.4349 1932.09 0zM976.284 2007.36C985.103 2015.68 995.631 2025.09 1003.55 2034.08L989.668 2048 945.901 2048C943.36 2045.49 942.033 2045.14 941.627 2042.35 952.684 2030.59 964.911 2019.17 976.284 2007.36zM1477.03 0L1553.47 0 1515.62 38.2065C1502.75 25.7733 1489.94 12.5987 1477.03 0zM1250.43 0L1326.39 0C1313.56 12.5434 1300.89 25.2433 1288.37 38.0967L1250.43 0zM1363.93 0L1440.18 0C1428.52 10.3711 1413.93 26.4266 1402.64 37.9666 1389.98 26.2502 1376.45 12.2385 1363.93 0zM1704.73 0L1780.79 0C1768.47 12.6264 1755.94 25.7963 1743.21 37.9563 1730.62 25.5217 1717.77 11.6544 1704.73 0zM477.976 30.7281C483.916 36.0143 489.236 41.0915 495.904 45.4588 484.226 56.7473 472.451 68.378 460.295 79.1088L439.137 79.2042C435.357 78.9429 434.608 79.5073 431.815 77.7281 432.493 76.088 473.481 35.5215 477.976 30.7281zM252.63 1355.36C261.263 1347.39 296.555 1309.77 302.755 1308.39 281.656 1335.62 285.465 1354.27 285.902 1388.09 278.857 1382.29 259.147 1362.17 252.63 1355.36zM252.118 1812.67C262.799 1800.97 274.528 1790.03 285.495 1777.85 285.351 1791.6 284.718 1810.77 285.818 1824.09 285.93 1833.76 286.473 1842.23 288.219 1851.79 276.37 1836.62 265.708 1826.23 252.118 1812.67zM252.479 1469.99C263.352 1458.45 275.7 1447.73 285.995 1435.61L285.813 1481.71C285.155 1486.92 285.316 1497.43 285.257 1503.09 274.698 1491.73 262.543 1481.61 252.479 1469.99zM252.282 1584.8C260.668 1575.77 276.951 1558.36 285.907 1550.86L285.813 1564.63C284.423 1576.63 285.259 1604.32 285.382 1617.45 276.419 1607.11 262.396 1594.12 252.282 1584.8zM1763.03 1777.59L1794.12 1809.09C1784.21 1819.15 1773.84 1829.24 1764.08 1839.33L1762.69 1839.01C1763.47 1819.24 1763.04 1797.5 1763.03 1777.59zM1756.61 1432.35C1761.02 1434.12 1786.69 1462.46 1792.74 1468.23 1789.87 1472.14 1767.55 1494.53 1763.11 1498.22 1763.32 1474.16 1765.79 1454.45 1756.61 1432.35zM507.56 0L540.263 0C528.278 11.8915 515.011 24.5866 503.787 37.0229 498.363 31.9745 492.989 26.8736 487.665 21.7211 493.837 14.1661 500.795 7.03786 507.56 0zM1763.07 1665.73C1773.25 1675.87 1783.36 1686.09 1793.4 1696.38 1783.14 1706.35 1772.51 1716.34 1763.06 1727.04L1763.07 1665.73zM1763.15 1551.86C1772.95 1560.66 1784 1572.49 1793.6 1581.97 1789.39 1586.16 1766.25 1610.02 1763.17 1610.77 1763.44 1591.37 1763.18 1571.32 1763.15 1551.86zM503.322 53.0589C511.033 60.4187 522.518 71.1692 529.414 79.1461L477.756 79.2263C485.766 70.2669 494.909 61.7597 503.322 53.0589zM3.39912 0L35.5866 0 19.7027 15.9685C14.2286 11.0929 8.62441 5.24048 3.39912 0zM116.564 0L149.389 0C144.017 5.19744 138.699 10.452 133.438 15.7629 127.922 10.3941 122.295 5.13874 116.564-5.68434e-14zM231.03 0L263.386 0C257.498 5.21323 253.011 9.71541 247.521 15.3747L231.03 0zM346.754 0L377.34 0C372.137 4.66773 367.163 9.6248 362.158 14.5084 357.073 9.6205 351.938 4.78411 346.754 0zM463.426 0L491.44 0C486.924 4.91767 482.288 9.72374 477.536 14.4139L463.426 0zM2035.09 102.53L2048 89.209 2048 115.351C2043.69 111.24 2039.33 106.752 2035.09 102.53zM2035.06 445.205L2048 432.434 2048 458.206C2043.32 453.998 2039.38 449.763 2035.06 445.205zM2035.21 216.885L2048 204.282 2048 230.029C2043.28 225.566 2039.61 221.666 2035.21 216.885zM2035.43 1468.13C2039.15 1463.91 2043.93 1459.49 2048 1455.52L2048 1481.24C2043.18 1476.69 2039.85 1473.07 2035.43 1468.13zM2035.53 672.839C2039.4 667.761 2043.37 664.254 2048 659.888L2048 684.948C2043.61 681.176 2039.6 676.964 2035.53 672.839zM2048 545.639L2048 571.433 2035.43 558.981C2039.45 554.546 2043.87 550.018 2048 545.639zM2035.81 331.371C2038.86 327.546 2044.41 322.123 2048 318.424L2048 343.544C2043.64 339.683 2039.83 335.579 2035.81 331.371zM2048 773.548L2048 798.574 2035.49 786.082 2048 773.548zM2048 1226.6L2048 1251.49C2043.83 1247.67 2039.81 1243.6 2035.78 1239.61 2038.95 1235.61 2044.29 1230.41 2048 1226.6zM2035.84 1124.77L2048 1112.35 2048 1137.41C2043.77 1133.36 2039.84 1129.04 2035.84 1124.77zM2048 998.541L2048 1022.71C2043.68 1019.14 2039.65 1015.03 2035.63 1011.11 2039.43 1006.79 2043.88 1002.6 2048 998.541zM2048 1569.04L2048 1593.46C2043.7 1589.53 2039.71 1585.29 2035.65 1581.11 2039.53 1577.13 2043.99 1572.96 2048 1569.04zM2048 1340.47L2048 1365.67 2035.79 1353.5C2039.55 1349.22 2044.04 1344.66 2048 1340.47zM2048 1795.6L2048 1820.25 2036.06 1808.71C2039.77 1803.81 2043.71 1799.98 2048 1795.6zM2048 1682.69L2048 1707.39 2035.9 1695.22C2039.11 1691.33 2044.33 1686.38 2048 1682.69zM2035.98 1921.61L2048 1909.45 2048 1933.74 2035.98 1921.61zM2048 2022.53L2048 2047.32C2043.91 2042.55 2040.82 2039.4 2036.34 2035.01L2048 2022.53zM0 126.314L11.4644 137.946 0 149.604 0 126.314zM0 12.4127L11.3633 23.8722 0 35.6446 0 12.4127zM2036.47 898.909C2040.04 894.89 2044.17 890.966 2048 887.163L2048 909.464 2036.47 898.909zM0 468.361L11.0645 479.407 0 490.624 0 468.361zM0 354.558L10.8133 365.604 0 376.457 0 354.558zM0 695.856C3.57675 699.355 7.18449 702.823 10.8228 706.258 7.3879 709.879 3.59039 714.081 0 717.467L0 695.856zM0 582.396C3.54819 585.61 7.57811 589.069 10.8226 592.532L0 603.458 0 582.396zM0 241.517L10.6904 252.637 0 262.616 0 241.517zM0 810.003C3.36349 813.386 7.04843 816.941 10.2464 820.437L0 830.458 0 810.003zM0 1460.47L8.92686 1470.36 0 1478.62 0 1460.47zM0 1575.09L8.86293 1584.25 0 1593.27 0 1575.09zM0 1116.17L8.58964 1125.97 0 1134.12 0 1116.17zM0 1002.35L8.57564 1011.64 0 1020.33 0 1002.35zM0 1346.59L8.70976 1355.48 0 1364.16 0 1346.59zM0 1917.29L8.52497 1925.91 0 1934.47 0 1917.29zM0 1232.04L8.55345 1240.85 0 1248.88 0 1232.04zM0 1803.64L8.58685 1812.52 0 1820.39 0 1803.64zM0 1689.92L8.28261 1698.5 0 1706.66 0 1689.92z" fill="#000000" class="svgShape color000000-23 selectable"></path><path fill="#565555" d="M 1899.27 81.0776 C 1902.18 83.7992 1911.76 92.3725 1913.44 95.0942 C 1904.97 90.8437 1900.27 92.7224 1899.27 81.0776 z" class="svgShape color565555-24 selectable"></path><path d="M312.057 1300.8C311.363 1298.68 311.536 1298.83 311.363 1296.55 313.666 1292.64 312.101 1293.68 315.5 1292.34L317.005 1293.4 317.524 1297.05C315.49 1298.55 314.275 1299.53 312.057 1300.8zM1730.83 1291.82C1734.25 1294.79 1734.62 1294.1 1735.39 1297.61 1733.53 1300.65 1733.25 1300.89 1730.92 1303.38L1730.83 1291.82zM1731 1179C1734.79 1180.76 1733.66 1179.41 1735.2 1182.53 1734.16 1186.03 1733.33 1186.63 1730.97 1189.33L1731 1179zM1731.02 838.67C1734.35 841.365 1734.5 840.577 1735.35 843.887 1733.5 846.797 1733.29 846.881 1730.91 849.167L1731.02 838.67zM1731.03 724.884C1734.18 727.819 1734.27 726.966 1734.99 730.396 1733.48 733.304 1733.4 733.191 1730.99 735.499L1731.03 724.884zM1730.9 1063.89C1734.37 1066.5 1734.36 1065.62 1735.42 1068.98 1733.54 1071.59 1733.63 1071.47 1731.03 1073.38L1730.9 1063.89zM1730.99 611.546C1734.38 614.537 1734.17 613.399 1734.68 616.888 1733.11 619.105 1732.99 619.371 1730.99 621.163L1730.99 611.546zM132.053 828.891C146.148 843.225 166.71 865.52 181.655 878.009 173.884 885.619 149.984 910.797 143.326 915.915 155.194 928.031 167.963 941.952 180.137 953.378 163.508 969.821 147.107 986.493 130.941 1003.39L82.3699 953.753C91.6761 944.479 111.111 923.703 120.45 916.004L115.737 910.907 113.918 910.563C105.285 909.016 86.2728 889.158 85.3681 879.977L84.1211 878.002C86.5544 874.501 97.1254 864.338 100.687 860.771 111.262 850.263 121.718 839.636 132.053 828.891z" fill="#000000" class="svgShape color000000-25 selectable"></path><path fill="#565555" d="M 85.3681 879.977 C 93.3934 887.972 109.041 902.712 115.737 910.907 L 113.918 910.563 C 105.285 909.016 86.2728 889.158 85.3681 879.977 z" class="svgShape color565555-26 selectable"></path><path d="M245.324 829.712C250.684 832.377 288.517 872.021 295.196 878.749 283.316 889.624 268.492 906.381 256.647 915.669 263.933 925.39 284.328 944.957 293.725 954.423 277.725 970.47 261.317 985.909 245.969 1002.6 240.834 1000.59 202.832 960.522 196.458 953.976 208.492 942.869 222.266 927.74 233.932 915.678 222.397 903.409 209.093 890.695 197.082 878.67 211.518 863.121 229.954 845.799 245.324 829.712zM247.22 31.4565C253.557 40.4356 286.743 72.9377 296.305 81.3424 290.529 86.8038 249.551 128.825 246.73 128.993 237.059 128.559 215.088 101.766 210.136 93.1671 206.166 88.5107 202.088 85.0433 197.565 80.9567 214.638 64.9881 231.198 48.4796 247.22 31.4565z" fill="#000000" class="svgShape color000000-27 selectable"></path><path fill="#565555" d="M 210.136 93.1671 C 214.745 97.1781 243.749 124.944 246.73 128.993 C 237.059 128.559 215.088 101.766 210.136 93.1671 z" class="svgShape color565555-28 selectable"></path><path d="M243.992 1933.89L293.392 1983.6C278.548 1999.56 260.616 2016.89 245.087 2032.39 239.922 2030.91 202.771 1991.44 195.288 1983.93 208.385 1969.05 229.566 1948.8 243.992 1933.89zM1571.69 225.116C1582.79 235.762 1595.4 250.477 1607.04 260.174 1615.25 264.445 1622.99 264.375 1621.23 274.648 1606.26 287.872 1586.63 308.868 1572.22 323.394 1557.76 307.7 1538.76 289.832 1523.47 274.126 1539.34 257.598 1555.42 241.261 1571.69 225.116z" fill="#000000" class="svgShape color000000-29 selectable"></path><path fill="#565555" d="M 1607.04 260.174 C 1615.25 264.445 1622.99 264.375 1621.23 274.648 C 1616.4 269.923 1611.67 265.097 1607.04 260.174 z" class="svgShape color565555-30 selectable"></path><path d="M129.68 1134.63C133.263 1135.64 174.177 1177.83 179.519 1183.17 163.967 1199.62 146.718 1215.49 131.729 1231.81 127.665 1231.06 87.9241 1189.36 82.0114 1183.41 96.1259 1167.55 114.53 1149.9 129.68 1134.63zM186.954 1420.59C189.699 1421.73 231.146 1464.92 236.196 1470.06 219.853 1486.13 203.674 1502.36 187.662 1518.77 177.664 1510.86 149.092 1480.69 138.099 1469.64 153.071 1453.7 171.305 1436.66 186.954 1420.59zM129.618 1363.67C132.331 1364.6 174.219 1406.93 179.678 1412.35 163.59 1428.75 147.173 1444.89 131.245 1461.4 125.181 1458.34 88.9798 1419.14 82.0941 1411.98 95.343 1397.02 115.216 1378.13 129.618 1363.67zM73.2481 1420.67C75.7286 1421.59 116.178 1463.57 122.538 1470.05 106.106 1486.05 89.9226 1502.3 73.9937 1518.8 68.9735 1515.84 30.4588 1475.72 24.9642 1469.53 41.2127 1453.39 57.3081 1437.1 73.2481 1420.67zM73.5826 1191.26C85.8861 1204.05 98.3613 1216.67 111.005 1229.13 115.29 1227.13 113.379 1227.04 116.94 1228.09 119.892 1231.84 119.255 1234.44 120.961 1238.59 121.476 1239.33 121.325 1239.92 121.44 1241.08 117.113 1246.57 107.777 1255.32 102.373 1260.72 92.7551 1270.34 83.2261 1280.06 73.7873 1289.85 57.6453 1273.26 41.3759 1256.78 24.9804 1240.44 39.5789 1224.74 58.246 1206.86 73.5826 1191.26z" fill="#000000" class="svgShape color000000-31 selectable"></path><path fill="#565555" d="M 111.005 1229.13 C 115.29 1227.13 113.379 1227.04 116.94 1228.09 C 119.892 1231.84 119.255 1234.44 120.961 1238.59 C 118.031 1236.23 113.827 1231.87 111.005 1229.13 z" class="svgShape color565555-32 selectable"></path><path d="M1628.56 167.599C1632.01 170.186 1642.13 181.09 1645.99 185.056 1656.51 195.835 1667.11 206.537 1677.79 217.162 1662.67 233.318 1644.9 249.93 1629.18 266.266 1613.71 251.93 1595.26 232.28 1580.21 217.002 1595.79 200.493 1612.59 183.836 1628.56 167.599zM1685.93 110.837C1701.4 127.447 1718.92 144.446 1735.03 160.59 1718.59 176.549 1702.41 192.774 1686.49 209.259 1669.53 193.426 1653.68 176.16 1636.56 160.024 1651.32 144.21 1670.33 126.582 1685.93 110.837zM130.067 1934.7C135.259 1937.44 172.529 1976.87 179.161 1983.53 164.693 1999.17 145.985 2017.38 130.633 2032.36 127.163 2031.33 87.2377 1989.29 81.7733 1983.67L130.067 1934.7zM186.879 1191.58C188.464 1192.2 230.844 1235.2 236.177 1240.47 221.232 1256.62 203.783 1273.72 188.196 1289.38 183.846 1287.7 144.349 1246.52 138.317 1240.39 154.943 1224.57 171.136 1208.29 186.879 1191.58zM1685.61 225.7C1690.59 228.356 1729.03 268.401 1735.12 274.589 1718.86 290.621 1702.75 306.801 1686.79 323.125 1680.62 318.381 1672.67 309.782 1666.96 304.071L1637.11 274.41C1649.36 260.679 1672.01 239.095 1685.61 225.7zM1458.35 110.923L1507.4 159.978C1490.59 176.175 1474.74 192.91 1458.11 209.222 1441.56 193.252 1425.89 176.393 1409.21 160.37 1424.97 143.98 1442.25 127.161 1458.35 110.923zM130.618 1248.68C146.677 1265.06 162.842 1281.35 179.113 1297.53 165.882 1312.66 145.207 1332.25 130.38 1347.06 114.093 1330.72 97.9066 1314.27 81.8212 1297.72L130.618 1248.68zM244.601 1248.88L293.099 1297.74C277.827 1312.3 260.029 1331.47 244.648 1346.86 228.487 1331.71 211.245 1313.87 195.487 1298.16 209.01 1283.45 230.016 1262.57 244.601 1248.88zM189.26 771.868C204.771 788.407 222.089 805.045 238.303 821.021L189.49 870.326C173.428 854.188 156.771 836.403 140.313 820.95L189.26 771.868zM129.915 1477.73C132.209 1479.27 142.796 1490.32 145.514 1493.1 156.602 1504.61 167.868 1515.94 179.308 1527.09 167.569 1537.66 142.17 1563.59 131.652 1575.12 126.767 1574.34 89.2198 1534.53 82.1521 1527.25 94.1732 1512.95 116.254 1491.87 129.915 1477.73zM1628.71 282.664C1631.56 284.765 1641.86 295.564 1644.83 298.543L1678.05 331.593C1662.64 347.798 1645.45 364.453 1629.56 380.354 1615.57 367.913 1594.41 345.172 1580.06 331.161L1628.71 282.664zM73.3062 1877.78C78.6292 1880.48 115.106 1918.61 122.781 1926.21 108.082 1942.3 90.0338 1958.24 74.3367 1975.25 62.4163 1965.19 37.35 1938.45 25.1979 1926.28 38.0022 1912.07 59.292 1890.93 73.3062 1877.78zM187.077 1877.66C190.929 1879.74 229.578 1919.37 235.945 1925.5 220.726 1941.98 203.126 1959.05 187.246 1975.28 174.096 1963.78 151.127 1939.21 138.702 1926.23 152.004 1911.45 172.611 1891.62 187.077 1877.66zM132.195 146.639C137.944 149.057 175.02 188.325 181.682 195.159 167.22 210.901 149.096 227.972 133.64 242.979 130.539 242.436 90.2874 200.784 84.4307 194.884 96.579 181.05 118.592 159.78 132.195 146.639zM1742.84 396.659C1746.94 399.375 1786.23 439.966 1791.9 445.736 1776.14 461.393 1759.77 479.346 1743.73 494.225 1727.76 479.936 1709.52 460.95 1694.2 445.611 1709.77 430.503 1728.48 412.602 1742.84 396.659zM189.809 89.6429C191.563 90.2839 234.869 133.393 239.394 137.635 225.907 152.452 205.504 171.251 190.683 186.63 186.711 184.16 146.684 143.355 141.029 137.674 157.369 121.746 173.629 105.735 189.809 89.6429zM187.946 962.633C192.718 965.294 230.065 1004.73 236.811 1011.41 220.746 1027.77 204.59 1044.03 188.345 1060.21 172.319 1043.7 155.31 1027.84 139.168 1011.17L187.946 962.633zM132.03 714.759C140.31 719.843 171.255 754.121 181.486 763.329 168.878 777.929 146.956 798.184 132.701 812.152 131.146 811.725 88.8115 768.998 83.9059 763.577 100.073 747.428 116.115 731.155 132.03 714.759zM1913.79 1133.66C1918.54 1136.88 1956.57 1176.46 1962.68 1182.71 1946.68 1199 1930.6 1215.21 1914.44 1231.34 1903.17 1222.34 1877.27 1194.28 1865.45 1182.58 1880.98 1166.31 1897.91 1149.72 1913.79 1133.66zM1686.34 339.754C1700.78 354.337 1722.29 374.013 1735.39 388.492 1719.2 403.7 1702.09 421.466 1686.27 437.315 1669.91 421.399 1653.57 404.453 1637.49 388.174 1651.91 372.752 1671.09 354.528 1686.34 339.754zM75.4993 657.679C91.5569 672.504 108.819 690.843 124.493 706.504 109.93 722.143 91.503 739.689 76.217 755.353 72.75 753.03 61.4191 741.165 57.9302 737.632L26.9819 706.517 75.4993 657.679zM1913.65 225.695C1929.6 242.102 1946.3 257.95 1962.1 274.422 1947.14 290.848 1929.96 307.691 1914.29 323.61 1897.74 307.367 1881.31 290.994 1865.02 274.492 1878.96 259.264 1898.8 240.384 1913.65 225.695zM189.094 543.804C195.58 547.988 231.091 585.129 238.512 592.736 222.241 608.788 206.139 625.009 190.207 641.397 184.589 638.63 148.228 600.05 140.786 592.706 157.07 576.585 173.174 560.284 189.094 543.804zM1514.86 167.764C1530.68 182.733 1548.24 201.725 1563.94 217.456 1547.85 233.319 1531.01 249.482 1515.66 265.981 1511.42 262.603 1502.63 253.342 1498.51 249.24 1487.75 238.609 1477.07 227.901 1466.47 217.116L1514.86 167.764zM73.1642 962.585C75.3979 963.399 117.076 1005.74 122.672 1011.01 111.487 1024.11 87.7412 1046.66 74.6615 1059.85 71.4679 1058.87 30.8994 1017.11 25.4502 1011.46 34.1302 1000.83 62.2722 973.92 73.1642 962.585zM73.8056 1649.73C77.0464 1652.15 86.6183 1662.15 89.8917 1665.43L122.628 1698.35C110.438 1711.89 87.5987 1733.13 73.9558 1746.8 68.902 1744.09 31.1777 1705.06 24.9907 1698.62 39.3875 1683.22 58.5513 1664.32 73.8056 1649.73zM186.902 1763.65C191.409 1766.17 229.561 1806.2 235.925 1812.53L187.438 1861.25C171.834 1845.88 153.088 1828.07 138.474 1812.07 154.71 1796.03 170.853 1779.89 186.902 1763.65zM244.678 1134.7C260.111 1148.81 278.211 1168.03 293.361 1183.07L244.729 1232.05C236.453 1226.19 206.562 1194.22 195.706 1184.23 208.408 1169.74 230.58 1148.75 244.678 1134.7zM130.507 1019.69C146.236 1033.69 163.391 1053.15 179.969 1068.47 163.433 1084.48 147.169 1100.77 131.185 1117.33 126.986 1114.47 87.63 1074.24 82.0172 1068.49L130.507 1019.69zM132.895 259.816L181.626 308.235C165.6 324.749 149.451 341.143 133.18 357.415 129.242 355.503 90.4764 314.961 84.1129 308.515 99.7407 292.532 116.924 275.595 132.895 259.816zM1857.16 1190.62C1858.79 1191.3 1901.22 1234.65 1906.53 1239.74 1890.22 1255.6 1874.26 1271.81 1858.64 1288.35 1855.17 1287.5 1814.72 1245.08 1809.13 1239.36 1825.27 1223.24 1841.28 1206.99 1857.16 1190.62zM1857.65 1418.9C1872.36 1434.34 1891.14 1453.47 1906.65 1467.88L1858.21 1517.14C1852.47 1512.48 1843.74 1502.85 1838.12 1497.05 1828.63 1487.32 1819.04 1477.68 1809.36 1468.14 1824.98 1451.57 1841.6 1435.1 1857.65 1418.9zM1401.63 54.6613C1404.52 55.4411 1444.01 96.3454 1450.57 102.895 1434.32 119.142 1417.81 135.167 1402.13 151.95 1398.1 149.361 1358.86 109.08 1353.21 103.37L1401.63 54.6613zM75.8201 202.733C90.381 216.345 111.274 237.379 124.629 252.122 108.264 267.886 92.1988 283.956 76.4409 300.326 72.9821 298.807 33.2649 258.256 27.1872 252.127 43.6881 235.95 59.9016 219.483 75.8201 202.733zM1628.76 54.666C1633.12 57.8421 1642.83 68.2434 1647.04 72.4887 1657.2 82.6569 1667.42 92.7611 1677.71 102.801 1661.97 119.581 1645.51 134.935 1629.79 151.543 1626.3 150.266 1586.9 109.568 1580.17 103.246 1592.39 89.3761 1615.1 68.2233 1628.76 54.666zM1913.97 339.863C1930.23 356.092 1945.68 372.022 1962.25 388.07 1946.62 404.757 1930.3 420.928 1914.34 437.346 1910.2 435.579 1871.22 394.87 1865.03 388.587 1880.69 372.396 1897.92 355.793 1913.97 339.863zM246.607 600.806C262.481 617.13 278.619 633.197 295.015 648.998 279.401 664.808 261.196 682.439 246.578 698.855 232.395 686.239 211.424 663.824 197.461 649.768 214.003 633.812 230.018 616.288 246.607 600.806zM1913.97 1362.63C1917.04 1363.8 1956.88 1404.64 1962.91 1410.58 1946.92 1426.77 1931.02 1443.05 1915.19 1459.4 1910.99 1458.13 1871.71 1416.9 1865.79 1410.86 1881.63 1394.56 1897.69 1378.48 1913.97 1362.63zM1856.72 737.671C1860.01 738.554 1900.39 780.342 1906.06 785.997 1891.18 802.153 1873.87 818.797 1858.24 834.375 1854.37 833.012 1815.01 791.984 1809.19 786.111 1821.22 772.044 1842.87 752.138 1856.72 737.671zM188.958 658.616C192.648 659.81 232.406 700.91 238.219 706.863 222.521 721.618 204.933 739.921 190.005 755.478 186.235 753.764 147.032 712.922 140.718 706.793L188.958 658.616zM245.865 714.734C260.031 729.596 279.786 750.404 294.943 763.766 281.683 778.678 261.406 797.477 246.77 812.95 230.537 797.808 213.247 779.907 197.273 764.176 212.888 747.717 229.925 731.115 245.865 714.734zM1856.14 168.716C1859.65 170.506 1898.91 210.995 1905.51 217.467L1857.64 265.898C1854.45 265.69 1814.06 223.415 1808.15 217.271 1824.48 201.42 1840.48 185.232 1856.14 168.716zM1970.74 1418.68C1986.61 1434.19 2003.58 1452.42 2019.42 1468.45 2004.52 1482.98 1985.51 1501.18 1971.79 1516.55 1966.95 1514.21 1928.8 1474.72 1922.21 1468.18 1936.23 1452.6 1955.76 1433.87 1970.74 1418.68zM73.7958 1076.74C90.2982 1093.24 105.939 1109.47 122.73 1125.87 106.927 1141.51 89.1037 1158.79 74.3758 1175.26 60.3293 1162.6 39.7167 1140.43 25.3882 1126.2L73.7958 1076.74zM131.681 487.622C135.677 488.792 175.795 529.831 181.673 535.637 165.761 551.113 149.163 568.031 133.674 583.96 130.392 583.375 89.8604 541.344 84.1034 535.516 100.134 519.722 115.994 503.757 131.681 487.622zM1742.9 282.729C1745.43 284.52 1755.92 295.457 1758.59 298.135L1792.04 331.574C1775.89 347.696 1759.84 363.921 1743.9 380.25 1731.02 369.22 1707.62 344.611 1694.24 331.581 1710.69 315.524 1726.91 299.239 1742.9 282.729zM246.572 373.761C252.505 377.285 287.416 414.724 294.787 422.034 278.845 438.392 262.405 454.589 246.819 471.237 230.471 455.658 213.66 438.406 197.77 422.31 212.262 407.523 231.569 386.758 246.572 373.761zM1571.69 111.656C1585.77 123.887 1606.84 145.907 1620.98 159.563 1607.02 174.973 1587.64 193.239 1572.73 208.46 1567.82 206.05 1530.1 166.541 1523.42 159.786 1537.3 144.748 1556.82 126.443 1571.69 111.656zM76.0078 89.6009C81.1072 92.4423 118.662 131.382 124.735 137.86 109.888 153.723 92.1127 170.804 76.7108 186.533 72.1699 183.591 34.871 145.202 27.6133 137.845L76.0078 89.6009zM1970.09 1190.6C1974.25 1192.85 2013.27 1233.61 2019.4 1239.76 2003.04 1255.49 1987.17 1271.73 1971.83 1288.46 1968.09 1286.96 1928.17 1245.66 1922.21 1239.63 1936.75 1223.4 1954.86 1207.94 1970.09 1190.6zM1856.41 1076.74C1862.31 1079.87 1898.95 1118.49 1905.97 1125.58 1890.27 1140.65 1873.01 1158.62 1858.1 1174.4 1852.94 1171.49 1815.7 1131.63 1809.36 1125.06L1856.41 1076.74zM1742.49 168.668C1746.32 170.623 1785 211.307 1791.37 217.762 1777.61 232.921 1758.18 251.579 1743.39 266.221 1727.07 249.806 1710.64 233.496 1694.11 217.291 1710.49 201.334 1726.61 185.124 1742.49 168.668zM1969.63 168.665C1972.71 170.178 2013.35 211.71 2019.06 217.348 2002.91 233.767 1986.99 249.406 1970.89 266.104 1968.19 264.289 1956.69 252.564 1953.71 249.56L1921.59 217.376C1937.82 201.356 1953.84 185.118 1969.63 168.665zM1856.59 510.688C1863.84 515.028 1897.82 551.22 1906.18 559.379 1891.54 572.494 1872.5 592.964 1858.23 607.413 1855.3 606.523 1814.47 565.064 1808.49 559.29 1822.35 544.039 1841.72 525.58 1856.59 510.688zM1970.5 396.72C1971.67 397.565 1983.95 410.329 1985.74 412.143L2019.08 445.503C2003.87 461.833 1986.68 477.64 1970.93 494.478 1955.01 480.015 1937.27 461.441 1921.65 446.17 1936.12 430.589 1955.2 412.401 1970.5 396.72zM1799.46 111.934C1811.7 122.529 1835.75 148.18 1848.51 160.694 1833.42 176.76 1815.94 193.571 1800.22 209.263 1784.44 194.606 1766.56 175.667 1750.94 160.174 1766.98 144.936 1783.71 127.65 1799.46 111.934zM75.3077 543.805C91.9986 559.8 107.718 576.501 124.66 592.547L76.231 641.3C65.6497 632.82 38.2893 603.731 27.0156 592.641 43.262 576.51 59.3601 560.231 75.3077 543.805zM187.39 1077.71C190.066 1078.81 230.723 1120.37 236.252 1125.84 220.955 1142 204.337 1158.16 188.746 1174.26 184.777 1173.54 144.897 1131.63 139.012 1125.77 153.935 1112.37 172.72 1092.39 187.39 1077.71zM244.852 1019.74C256.184 1029.31 281.409 1056.13 293.784 1068.04 277.61 1083.96 261.575 1100.02 245.68 1116.22 240.183 1114.18 203.211 1075.62 196.258 1068.69 209.829 1053.56 230.153 1034.42 244.852 1019.74zM188.965 316.607C192.806 318.692 231.013 357.86 238.535 365.175 222.24 381.035 205.392 397.498 190.145 414.332 187.233 412.379 177.115 401.871 174.216 398.958L140.909 365.458C157.23 349.474 173.251 333.188 188.965 316.607zM132.208 600.961C148.694 615.931 165.22 635.417 181.774 649.284 165.774 665.859 148.912 681.397 133.167 698.282 126.798 693.485 91.8962 657.25 84.0651 649.335L132.208 600.961zM130.134 1706.85C132.194 1708.16 145.295 1721.6 147.765 1724.11 158.095 1734.61 168.523 1745.01 179.047 1755.31 163.224 1771.7 146.557 1788.13 130.474 1804.33 114.116 1788.23 97.9282 1771.96 81.9134 1755.52 97.3297 1739.37 114.368 1723.02 130.134 1706.85zM1856.38 624.713C1861.83 627.296 1898.02 665.583 1905.79 672.839 1895.46 685.311 1870.7 708.821 1858.12 721.406 1854.5 720.009 1814.58 678.294 1808.95 672.654 1823.71 656.976 1841.1 640.389 1856.38 624.713zM75.3129 772.137C80.6153 776.362 89.3859 786.268 94.5149 791.387 104.36 801.212 114.293 810.928 124.164 820.723 107.922 836.903 91.8291 853.233 75.8873 869.709 60.5718 855.608 42.1571 835.976 26.9986 820.817 35.5144 810.443 64.4818 782.978 75.3129 772.137zM1913.65 567.652C1915.71 568.452 1957.74 611.234 1962.46 615.867 1946.28 632.043 1930.35 648.469 1914.68 665.139 1898.07 648.932 1881.65 632.537 1865.42 615.958 1880.36 600.166 1898.15 583.175 1913.65 567.652zM130.067 1820.73C134.715 1823.28 172.032 1862.38 179.339 1869.38 163.189 1885.07 147.343 1901.08 131.81 1917.38L130.717 1917.45C125.939 1914.25 117.205 1904.68 112.788 1900.21L81.9373 1869.18 130.067 1820.73zM1856.71 282.699C1860.37 285.804 1867.8 293.967 1871.52 297.667 1882.99 309.092 1893.88 320.61 1905.94 331.477L1857.24 380.328C1854.63 378.458 1842.24 365.103 1839.21 362.063 1829.13 351.943 1818.43 341.895 1808.7 331.499 1823.48 315.541 1841.24 298.143 1856.71 282.699zM186.758 1306.6C188.901 1307.43 230.974 1350.57 236.081 1355.68 219.691 1371.46 203.734 1387.69 188.228 1404.35L138.426 1355.04C154.742 1339.1 170.854 1322.96 186.758 1306.6zM1800.02 680.589C1802.22 681.645 1843.87 724.064 1849.67 729.81 1833.57 745.724 1817.58 761.752 1801.71 777.894 1798.93 777.451 1758.32 735.453 1752.3 729.366 1763.32 719.893 1790.48 691.578 1800.02 680.589zM1913.7 453.694C1928.81 469.781 1946.53 486.916 1962.22 502.675 1947.61 518.421 1929.96 535.463 1914.66 550.935 1897.94 534.975 1881.45 518.773 1865.2 502.333 1881.21 485.96 1897.38 469.747 1913.7 453.694zM246.565 146.674C251.088 147.642 289.381 188.386 294.981 194.465L246.874 243.221C230.853 228.506 213.644 210.419 198.052 194.806 214.222 179.411 230.704 162.501 246.565 146.674zM1857.09 1304.64C1859.92 1306.12 1900.91 1348.39 1906.59 1354.01 1890.09 1369.6 1874.47 1385.8 1858.62 1402.04 1854.23 1401.13 1816.39 1360.51 1809.66 1353.74L1857.09 1304.64zM73.7389 1305.7C89.7367 1321.31 106.419 1338.99 122.432 1355.03 106.349 1371.01 90.3728 1387.1 74.5047 1403.29 69.4245 1400.22 31.8973 1361.31 25.5763 1354.87L73.7389 1305.7zM1970.43 623.712C1986.46 640.176 2002.61 656.523 2018.88 672.751 2007.82 685.565 1983.81 708.321 1970.67 721.833 1954.7 705.288 1938.5 688.963 1922.08 672.862 1932.98 660.093 1957.7 636.621 1970.43 623.712zM1855.88 54.6098C1860.99 57.4815 1897.76 96.0392 1905.16 103.397 1889.99 118.33 1871.78 136.233 1857.76 151.925 1854.29 151.097 1813.12 108.087 1808.31 103.145 1824.49 87.0685 1839.88 70.7513 1855.88 54.6098zM1913.3 680.737C1917.86 682.871 1955.13 722.401 1962.8 729.366 1949.67 743.976 1928.97 763.464 1914.67 778.052 1898.8 763.217 1881.32 744.966 1865.81 729.447 1879.82 713.93 1898.41 696.318 1913.3 680.737zM132.986 32.8534C136.382 35.3988 144.412 43.7847 147.831 47.1225 159.334 58.3504 170.22 70.1341 182.322 80.7718 166.063 96.919 149.896 113.157 133.82 129.486 131.655 128.76 89.3638 86.2867 84.255 81.425 98.5586 66.2171 117.66 48.5892 132.986 32.8534zM1913.59 111.659L1962.06 160.344C1945.98 176.556 1929.43 192.671 1913.79 209.271 1897.31 193.012 1880.91 176.671 1864.6 160.246L1913.59 111.659zM1799.65 453.623C1803.79 456.953 1812.59 466.256 1816.69 470.361L1848.83 502.53C1832.61 518.487 1816.62 534.675 1800.87 551.087 1790.05 542.132 1763.01 513.533 1751.88 502.472 1765.03 487.695 1785.14 468.552 1799.65 453.623zM1914.27 1247.74C1930.14 1264.34 1946.33 1280.63 1962.85 1296.59 1946.68 1312.69 1930.65 1328.92 1914.76 1345.3 1898.03 1329.47 1882.31 1312.79 1865.68 1296.72 1881.98 1280.18 1897.55 1263.88 1914.27 1247.74zM1799.77 225.689C1802.65 227.918 1812.2 237.899 1815.12 240.819L1848.61 274.286C1833.08 290.595 1816.39 307.033 1800.48 323.084 1788.49 312.967 1763.8 286.594 1751.84 274.521 1765.99 259.009 1784.71 241.045 1799.77 225.689zM1800.86 1247.76C1816.08 1261.54 1833.94 1281.4 1849.4 1296.43 1833.46 1311.83 1816.84 1329.36 1801.19 1345.24 1785.3 1330.38 1768.09 1312.19 1752.55 1296.63 1768.57 1280.25 1784.67 1263.96 1800.86 1247.76zM1969.9 54.7426C1973.42 57.4061 1983.18 67.6741 1986.73 71.2112L2019.06 102.948C2004.05 116.865 1985.12 136.862 1970.98 151.869 1965.36 148.982 1929.32 111.122 1921.91 103.617 1925.22 99.8524 1928.81 96.3609 1932.42 92.8888 1945.27 80.5199 1957.23 67.2881 1969.9 54.7426zM1969.92 282.682C1976.13 286.397 2011.32 323.609 2019.19 331.447 2002.79 347.352 1986.74 363.626 1971.07 380.254 1967.81 377.917 1957.01 366.701 1953.79 363.463L1921.99 331.754C1935.79 316.568 1955.07 298.277 1969.92 282.682zM1856.85 396.917C1870.1 411.65 1890.99 431.633 1905.5 445.805L1857.24 494.336C1846.56 486.73 1818.61 455.836 1808.56 445.173 1824.78 429.216 1840.88 413.13 1856.85 396.917zM1800.14 1134.55C1803.52 1135.76 1844.37 1177.11 1850 1182.77 1833.74 1198.6 1817.66 1214.62 1801.77 1230.83 1799.33 1230.27 1756.89 1187.37 1752.42 1182.97 1767.51 1169.05 1786.07 1149.42 1800.14 1134.55zM1857.33 1760.72C1861 1761.38 1899.99 1802.25 1906.49 1808.82 1891.49 1824.1 1874.12 1842.65 1858.69 1856.99 1857.51 1856.72 1814.08 1812.66 1810.01 1808.66 1821.06 1795.9 1844.77 1772.36 1857.33 1760.72zM246.562 259.639C257.925 269.382 283.442 296.809 295.068 308.54 278.782 324.565 262.668 340.764 246.729 357.136L197.559 308.309C212.896 292.258 230.683 275.527 246.562 259.639zM73.203 1763.8C77.19 1765.76 115.942 1806.03 122.319 1812.35 106.775 1827.81 89.6073 1844.49 74.9013 1860.61 72.7733 1860.1 31.0012 1818.04 25.2041 1812.34 41.1091 1796.07 57.1091 1779.89 73.203 1763.8zM1970.5 1304.66C1987.03 1321.23 2002.76 1337.32 2019.67 1353.62 2003.25 1369.51 1987.18 1385.74 1971.47 1402.32 1966.77 1399.32 1928.15 1359.31 1922.66 1353.36 1938.94 1337.46 1954.89 1321.22 1970.5 1304.66zM1742.36 54.9083C1755.46 66.3895 1777.98 90.2907 1791.51 103.612 1775.72 119.84 1759.39 135.446 1743.72 151.811 1739.85 148.736 1730.32 138.697 1726.2 134.57L1694.11 102.733C1708.76 87.314 1727.05 70.1554 1742.36 54.9083zM1913.89 794.621C1916.63 795.987 1957.69 838.14 1962.52 842.932 1948.93 858.123 1929.6 876.459 1914.75 891.183 1900.93 879.414 1878.63 856.179 1865.69 842.866L1913.89 794.621zM1514.82 54.7018C1517.75 56.7947 1526.02 65.521 1528.98 68.4387 1540.69 79.9593 1551.85 92.4884 1564.54 102.97 1548.48 119.131 1531.81 134.676 1516 151.053 1510.44 147.772 1473.58 109.468 1466.93 102.69 1481.94 86.7903 1499.24 70.216 1514.82 54.7018zM245.869 487.612C247.736 488.349 289.98 531.351 294.662 535.904 279.002 552.332 262.571 567.775 246.886 584.538 230.987 570.049 212.986 551.333 197.665 535.952L245.869 487.612zM75.8312 430.647C77.9125 431.975 88.2721 442.533 90.6809 444.939L125.111 479.38C109.666 492.954 91.521 512.058 76.6854 526.842 73.5238 526.295 32.5603 484.562 27.4859 479.195 43.9833 463.397 60.1029 447.21 75.8312 430.647zM1970.64 1076.67C1972.42 1077.97 1983.76 1089.99 1986.33 1092.59L2019.01 1125.35C2003.36 1141.35 1986.06 1157.74 1971.12 1174.24 1963.88 1168.73 1929.99 1133.25 1922.36 1125.21 1938.57 1109.15 1954.66 1092.97 1970.64 1076.67zM132.821 373.76C149.324 389.277 165.311 406.262 181.134 422.563 165.441 438.657 149.076 454.445 133.162 470.398 129.893 468.955 90.1456 427.826 84.6449 422.244 96.7829 408.465 119.197 387.097 132.821 373.76zM189.783 203.649C196.899 208.11 230.219 243.81 238.422 252.042 222.664 268.167 206.106 284.213 190.178 300.358 182.336 295.432 149.767 260.303 141.388 251.865 154.833 237.152 175.263 218.096 189.783 203.649zM1857.81 1873.71C1860.47 1875.61 1871.01 1886.42 1873.8 1889.24L1906.47 1922.27C1893.21 1937.37 1873.53 1955.9 1858.99 1970.39 1855.57 1968.73 1815.83 1927.54 1809.97 1921.63 1824.54 1906.11 1842.58 1888.88 1857.81 1873.71zM1914.45 1816.98C1926.42 1827.32 1950.84 1853.3 1963.01 1865.4 1947.91 1881.6 1930.5 1897.97 1914.87 1914.32L1866.05 1865.48 1914.45 1816.98zM1970.32 1760.75C1973.29 1761.92 2014.52 1803.24 2019.91 1808.44 2003.87 1824.8 1987.73 1841.05 1971.49 1857.21 1955.31 1841.02 1938.97 1824.97 1922.5 1809.07 1936.26 1794.15 1955.56 1775.92 1970.32 1760.75zM1970.88 1646.79C1985.88 1662.99 2003.7 1679.92 2019.67 1695.32 2005.09 1711.24 1987.14 1727.09 1971.52 1743.95 1969.65 1742.68 1958.82 1731.74 1956.77 1729.72L1922.44 1695.7C1934.55 1681.88 1957.13 1660.59 1970.88 1646.79zM1800.22 340.039C1803.74 342.865 1813.26 352.987 1816.65 356.439L1848.64 388.882 1800.13 437.209C1784.9 420.98 1767.77 404.325 1751.92 388.585 1767.9 372.281 1783.99 356.099 1800.22 340.039zM187.254 1534.96C203.056 1551.58 219.149 1567.93 235.525 1583.99 219.33 1600.19 203.582 1615.77 187.778 1632.4 172.116 1616.55 154.405 1599.74 138.398 1584.11 154.203 1568.31 172.318 1551.32 187.254 1534.96zM1800.97 1362.8C1803.82 1364.87 1815.09 1376.64 1818.17 1379.75 1828.54 1390.27 1839.03 1400.68 1849.63 1410.97 1833.8 1427.24 1817.8 1443.35 1801.62 1459.27 1794.12 1454.93 1760.99 1419.48 1752.73 1411.26 1768.77 1395.77 1785.2 1378.71 1800.97 1362.8zM189.401 430.769C205.584 447.043 222.465 462.953 238.359 479.319 222.095 495.289 205.925 511.354 189.85 527.513L140.866 479.121C157.185 463.146 173.364 447.028 189.401 430.769zM1799.88 567.712C1808.04 573.101 1840.05 607.606 1849.14 616.424 1833.2 632.259 1817.37 648.209 1801.66 664.271 1799.36 663.726 1757.15 620.832 1752.2 615.971 1768.23 600.023 1784.12 583.936 1799.88 567.712zM1913.7 1476.64C1917.09 1477.67 1956.44 1518.6 1962.72 1524.85 1947.27 1539.49 1929.64 1557.71 1915.19 1573.28 1903.06 1563.03 1878.44 1537.11 1865.94 1524.85 1879.91 1509.6 1898.84 1491.57 1913.7 1476.64zM130.15 1592.71C134.267 1594.83 171.468 1634.47 179.167 1641.06 163.493 1657.11 147.36 1672.73 131.678 1688.85 131.018 1688.8 130.358 1688.74 129.699 1688.68 119.92 1679.57 90.2395 1649.13 82.3163 1641.08 98.2606 1624.82 114.25 1609.13 130.15 1592.71zM75.5679 316.703C91.5877 333.332 107.977 349.601 124.724 365.497 108.498 381.763 92.6989 397.261 76.67 413.787 70.0309 409.839 35.0529 372.858 27.658 365.244 41.5786 349.982 60.3434 332.944 75.5679 316.703zM187.658 1649.81C203.229 1666.24 219.207 1682.28 235.579 1697.91 219.934 1714.53 203.181 1730.31 187.469 1747.24L138.8 1698.46 187.658 1649.81zM1800.26 794.567C1802.91 795.507 1844.19 837.586 1849.92 843.299L1802.02 890.42C1797.24 888.306 1759.01 848.573 1752.9 842.394 1768.41 827.699 1785.53 810.088 1800.26 794.567zM1970.93 1873.83C1974.76 1877.03 1982.98 1885.71 1986.81 1889.51L2019.54 1921.96C2003.35 1937.82 1987.43 1953.94 1971.77 1970.33 1967.2 1968.08 1929.25 1928.93 1922.94 1922.61 1927.9 1916.33 1937.28 1907.94 1943.1 1901.99 1952.27 1892.61 1961.55 1882.97 1970.93 1873.83zM1801.3 1930.02C1804.7 1932.81 1813.36 1941.89 1817 1945.51L1850.66 1978.96C1835.12 1994.94 1818.45 2011.15 1802.66 2027.04 1786.58 2010.55 1770.34 1994.23 1753.95 1978.05 1768.32 1962.15 1786.17 1946.32 1801.3 1930.02zM73.395 1535.7C77.2774 1538.45 87.8301 1549.7 91.7023 1553.65 101.76 1563.97 111.985 1574.13 122.371 1584.12 107.031 1598.2 89.1248 1617.25 74.2217 1632.37 68.5091 1629.08 33.4849 1592.04 25.5136 1584.17 39.8934 1568.52 58.2016 1551.45 73.395 1535.7zM1857.71 1532.68C1862.57 1536.87 1869.84 1544.91 1874.66 1549.71L1906.74 1581.22C1890.21 1596.89 1874.18 1613.1 1858.69 1629.8 1857.31 1629.7 1815.72 1587.11 1809.99 1581.45 1825.97 1565.52 1841.93 1548.85 1857.71 1532.68zM1970.65 737.7C1986.58 754.165 2002.7 770.453 2018.99 786.561L1970.93 834.749C1957.34 819.732 1937.09 800.71 1922.39 786.077 1936.65 770.891 1955.63 752.536 1970.65 737.7zM1914 1703.77C1915.62 1704.84 1927.43 1716.9 1929.55 1719.02 1940.64 1730.18 1951.79 1741.27 1963 1752.31L1915.66 1800.28C1909.86 1797.35 1873.81 1759.17 1866.59 1752.02 1882.4 1736.65 1898.41 1719.57 1914 1703.77zM1913.77 1019.73C1929.14 1035.88 1946.31 1052.52 1962.34 1068.11 1946.32 1083.98 1930.55 1100.09 1915.02 1116.44 1908.53 1112.96 1874 1076.18 1865.74 1068.38L1913.77 1019.73zM1970.05 962.784C1983.35 974.304 2005.68 998.113 2018.7 1011.25 2003.64 1027.3 1986.89 1043.24 1971.47 1059.39 1967.31 1056.68 1928.49 1017.05 1922.68 1011.27 1933.76 998.044 1957.05 976.361 1970.05 962.784zM1969.85 511.633C1972.65 512.502 2013.69 554.032 2019.02 559.313 2003.29 574.26 1987.03 591.495 1971.77 607.127 1969.35 606.391 1927.03 563.775 1922.29 559.147L1969.85 511.633zM1914.24 1930.68C1916.14 1931.57 1957.88 1973.62 1963.19 1978.81 1946.71 1994.99 1931.06 2010.39 1915.31 2027.29L1866.76 1978.45C1881.9 1962.29 1898.47 1946.31 1914.24 1930.68zM243.455 1820.94C255.345 1831.31 279.906 1857.75 291.127 1869.66 275.476 1884.75 259.566 1901.91 244.434 1917.67 233.622 1908.83 205.459 1880.18 195.627 1869.45 210.595 1853.54 227.954 1836.9 243.455 1820.94zM1800.62 1019.64C1815.72 1033.48 1833.57 1053.2 1849.22 1068.27 1833.24 1084.17 1817.4 1100.22 1801.72 1116.42 1794.39 1112.13 1761.18 1075.87 1753.01 1067.76 1767.98 1054.03 1786.34 1034.44 1800.62 1019.64zM1970.74 1532.69C1972.9 1534.46 1982.67 1544.93 1985.49 1547.76 1996.78 1559.18 2008.22 1570.46 2019.78 1581.61 2004.71 1595.14 1985.33 1614.35 1972.1 1629.48 1965.43 1625.77 1931.55 1589.93 1922.97 1581.48 1939.16 1565.48 1955.09 1549.22 1970.74 1532.69zM1857.71 1647.68C1860.55 1649.72 1870.78 1660.2 1873.76 1663.18L1906.31 1695.78C1890.44 1711.4 1874.82 1727.26 1859.44 1743.36 1856.32 1742.69 1816.91 1702.11 1810.09 1695.47 1825.63 1679.86 1841.85 1662.72 1857.71 1647.68zM1914.77 1589.72C1930.35 1606.18 1946.29 1622.3 1962.57 1638.06 1946.96 1654.63 1930.47 1670.12 1915.08 1686.74 1899.02 1671.57 1882.91 1654.38 1866.69 1638.73L1914.77 1589.72zM1856.98 962.79C1858.75 964.025 1870.99 976.818 1873.56 979.441 1883.94 990.131 1894.53 1000.63 1905.3 1010.94 1890.02 1026.94 1872.43 1043.34 1857.91 1059.45 1854.64 1057.91 1814.81 1016.37 1809.7 1011.21 1821.61 997.321 1843.42 976.776 1856.98 962.79zM1913.06 906.52C1917.91 908.681 1954.8 947.121 1961.93 954.07 1945.99 969.832 1930.3 985.834 1914.84 1002.07 1909.3 999.406 1873.4 961.268 1866.02 953.989 1880.45 940.128 1899.94 920.992 1913.06 906.52zM1800.49 905.785C1816.38 921.929 1832.41 937.94 1848.58 953.814 1834.63 969.11 1815.86 987.033 1800.98 1002.65 1785.15 986.405 1769.18 970.296 1753.08 954.321 1769.09 938.854 1785.11 921.912 1800.49 905.785zM1857.4 850.87C1870.45 862.419 1891.98 885.496 1905 898.569 1892.07 909.299 1870.31 932.355 1857.57 945.2 1842.02 929.334 1826.38 913.571 1810.62 897.913 1826.35 882.367 1841.94 866.685 1857.4 850.87zM1969.97 851.584C1971.55 852.296 2012.27 893.046 2017.81 898.391 2004.13 909.936 1983.83 931.652 1970.77 944.86 1970.06 944.684 1928.16 903.085 1923.19 898.529 1939.6 883.167 1954.36 867.747 1969.97 851.584zM301.786 1076.65C306.179 1079.52 313.669 1088.45 317.173 1092.52 317.689 1113.91 317.363 1137.95 317.073 1159.37L302.096 1174.41 285.716 1158.48C275.065 1147.59 264.28 1136.83 253.363 1126.21 268.676 1109.89 286.02 1093.12 301.786 1076.65zM301.433 962.706C307.339 967.377 312.458 973.512 317.498 979.156 316.797 1000.24 317.179 1023.08 317.139 1044.3 312.055 1049.46 307.041 1054.68 302.1 1059.98 297.162 1055.66 291.119 1049.38 286.332 1044.66L253.662 1011.65C257.715 1006.53 266.119 998.933 270.926 994.012 281.107 983.589 291.284 973.166 301.433 962.706zM302.988 657.865C308.346 662.461 312.12 666.724 316.882 671.918 317.007 695.454 316.991 718.99 316.835 742.526 311.924 746.916 307.845 751.163 303.269 755.888L287.17 740.274C276.001 729.414 265.41 718.137 254.087 707.239 270.238 690.634 286.538 674.175 302.988 657.865zM302.272 544.601C305.619 545.722 313.945 555.41 316.844 558.538 317.198 581.279 317.249 604.024 316.996 626.766 312.455 631.518 307.852 636.209 303.187 640.839L287.347 625.282C276.411 614.164 265.988 603.593 254.576 592.98L302.272 544.601zM890.391 1977.9C915.036 1976.8 947.497 1977.82 972.963 1977.74L981.323 1985.67C972.396 1995 963.413 2004.28 954.377 2013.5 947.213 2020.88 939.905 2028.11 932.456 2035.2 918.587 2019.99 897.882 2000.4 882.92 1985.38L890.391 1977.9zM661.214 1977.79L745.557 1977.86 752.54 1985.13 724.137 2013.29C717.12 2020.34 710.175 2027.47 703.305 2034.67 686.938 2018.81 668.904 2000.88 653.576 1984.11L661.214 1977.79zM547.731 1977.94L630.238 1977.77 637.612 1984.99C628.115 1993.24 618.797 2003.38 610.013 2012.5 602.832 2019.79 595.713 2027.13 588.656 2034.54 574.355 2021.61 552.593 1999.05 539.851 1984.7 542.46 1982.43 545.086 1980.17 547.731 1977.94zM775.669 1977.9C799.648 1976.71 833.541 1977.84 858.161 1977.89L866.591 1985.14C857.805 1994.1 848.927 2002.97 839.957 2011.74 832.476 2019.7 825.5 2026.58 817.656 2034.15 809.047 2025.54 776.176 1993.78 770.531 1985.95 771.057 1983.01 770.618 1984.09 772.618 1981.63L775.669 1977.9zM1415.15 1977.83C1447.37 1977.6 1479.58 1977.56 1511.8 1977.72 1502.66 1985.86 1495.39 1993.16 1486.83 2001.89 1479.06 2009.4 1471.08 2018.18 1463.64 2026.11 1450.84 2015.53 1428.77 1990.88 1415.15 1977.83zM75.0533 886.546C78.0466 887.753 100.937 911.443 104.989 915.472 96.998 921.546 82.4619 936.991 74.6997 944.868 70.5421 943.702 49.4602 920.353 45.3111 915.934 55.1627 907.384 65.7884 896.025 75.0533 886.546zM188.816 886.618C191.732 887.913 214.073 910.798 218.553 915.032 209.223 922.473 197.26 935.9 188.882 944.87 184.774 943.146 163.243 919.957 159.188 915.671 168.513 907.435 179.805 895.594 188.816 886.618zM302.863 886.645C307.551 889.387 313.681 896.756 317.2 900.921 316.974 910.543 317.123 920.725 317.102 930.396L302.18 945.603 295.646 939.322 272.541 916.451C281.864 908.37 293.877 895.66 302.863 886.645zM284.673 1664.72C285.76 1668.99 285.168 1722.36 285.151 1731.33 280.155 1724.79 275.055 1720.19 269.154 1714.55L252.765 1698.28C262.732 1686.9 274.208 1677.05 284.673 1664.72z" fill="#000000" class="svgShape color000000-33 selectable"></path><path fill="#565555" d="M140.942 489.071C142.621 489.03 146.666 488.847 147.917 490.088 156.019 498.123 163.592 506.565 171.714 514.678L171.099 513.477C176.327 517.983 177.924 521.116 182.201 526.44 183.103 526.924 182.583 526.554 183.516 527.83L182.109 528.25C172.593 523.913 166.433 514.294 158.947 506.967 154.535 502.649 143.398 493.799 140.942 489.071zM164.858 1617.65C169.91 1619.15 179.303 1629.34 180.325 1634.61 173.154 1633.58 166.084 1624.41 164.858 1617.65z" class="svgShape color565555-34 selectable"></path><path d="M 315.706 1176.67 L 316.956 1178.13 C 317.458 1182.64 317.89 1184.02 316.897 1188.32 L 315.195 1189.01 C 312.88 1186.54 312.723 1186.56 311.205 1183.37 C 312.086 1179.63 312.72 1179.97 315.706 1176.67 z" fill="#000000" class="svgShape color000000-35 selectable"></path><path fill="#565555" d="M 110.409 1561.76 C 115.032 1564.71 121.558 1571.16 122.218 1576.84 C 117.269 1573.39 110.793 1567.87 110.409 1561.76 z" class="svgShape color565555-36 selectable"></path><path d="M315.058 1062.56L316.376 1063.2C317.682 1067.13 317.767 1070.69 315.655 1074.21 313.825 1072.48 313.023 1071.46 311.434 1069.55 311.587 1065.67 312.076 1066.36 315.058 1062.56zM315.512 948.613L316.88 950.135C317.693 954.491 317.836 954.746 316.949 958.984L315.181 959.679C312.848 957.247 312.806 957.329 311.28 954.368 312.238 950.849 312.422 951.582 315.512 948.613z" fill="#000000" class="svgShape color000000-37 selectable"></path><path fill="#565555" d="M110.725 1448.95C114.924 1451.8 121.575 1457.37 122.335 1462.58 117.615 1460.37 111.089 1454.42 110.725 1448.95zM62.6094 524.753C60.5786 519.926 57.1374 519.235 55.4411 514.256L56.9356 513.774C60.5213 516.231 61.9975 517.022 65.1572 520.132L64.4805 521.357 62.6094 524.753zM1900.2 1568.95C1897.51 1566.64 1893.26 1563.39 1894.28 1559.4 1899.15 1562.2 1899.13 1564.97 1903.99 1567.98L1900.2 1568.95z" class="svgShape color565555-38 selectable"></path><path d="M 315.304 644.532 C 318.423 647.369 317.657 652.021 315.554 655.221 C 314.573 653.988 313.402 652.152 312.481 650.808 C 312.617 646.967 312.541 648.201 315.304 644.532 z" fill="#000000" class="svgShape color000000-39 selectable"></path><path fill="#565555" d="M 55.8802 1737.45 L 57.517 1736.74 C 61.3224 1740.65 64.5125 1743.67 67.6337 1748.18 C 63.334 1747.18 57.7061 1741.29 55.8802 1737.45 z" class="svgShape color565555-40 selectable"></path><path d="M315.527 758.711C318.358 761.587 317.466 765.685 315.074 768.507L312.193 764.836C312.304 761.529 312.88 761.979 315.527 758.711zM314.293 531.316C316.434 532.149 315.46 531.565 316.956 533.486 317.397 537.4 317.101 537.864 316.065 541.777L312.569 537.554C312.078 534.009 312.214 535.147 314.293 531.316z" fill="#000000" class="svgShape color000000-41 selectable"></path><path fill="#565555" d="M60.5271 633.584C65.391 634.361 67.7636 638.963 70.131 642.765 63.5046 640.76 63.2918 639.939 60.5271 633.584zM2012.9 315.555C2017.61 317.597 2018.37 319.206 2021.31 323.431 2014.9 322.328 2015.06 321.653 2012.9 315.555zM1957.08 827.829C1961.37 829.631 1963.13 830.989 1964.3 835.691 1959.31 833.894 1958.56 832.576 1957.08 827.829zM230.762 1225.94C234.893 1227.71 235.799 1229.61 238.253 1233.32L233.962 1232.16C230.983 1229.21 231.919 1230.4 230.762 1225.94zM174.277 1854.55C178.995 1857.08 178.71 1857.61 178.461 1862.46 173.711 1860.27 174.411 1859.09 174.277 1854.55zM1958.14 1737.55C1962.77 1740 1962.56 1740.79 1963.17 1745.61 1958.93 1743.14 1958.75 1742.15 1958.14 1737.55zM118.583 121.813C122.07 124.398 122.512 125.383 123.999 129.2L120.328 127.599C118.025 124.326 118.721 126.143 118.583 121.813zM1902 204.708C1906.82 206.227 1906.39 207.662 1907.16 211.848 1902.75 209.324 1903.31 208.903 1902 204.708zM60.5892 940.646C65.3846 942.044 65.8886 942.999 67.8777 947.299 63.3096 946.317 62.6533 944.469 60.5892 940.646zM1900.2 1568.95L1903.99 1567.98C1906.23 1570.95 1906.06 1569.51 1905.79 1572.31L1903.62 1572.36C1902.45 1571.22 1901.31 1570.15 1900.2 1568.95zM1957.03 715.9C1961.66 717.184 1961.89 718.244 1963.17 722.404 1958.96 720.465 1958.72 719.759 1957.03 715.9zM254.52 1249.82C258.698 1251.76 258.553 1252.95 260.188 1256.62 255.499 1254.54 255.378 1254.54 254.52 1249.82zM64.4805 521.357C66.823 524.752 67.4181 524.281 66.8876 527.222 63.7342 526.452 65.1644 527.147 62.6094 524.753L64.4805 521.357zM1957.59 1964.66C1961.77 1965.86 1961.42 1966.76 1963.79 1970.43 1959.15 1969.21 1959.67 1968.57 1957.59 1964.66z" class="svgShape color565555-42 selectable"></path></svg></g></svg>